<svg width="212" height="201" viewBox="0 0 212 201" fill="none" xmlns="http://www.w3.org/2000/svg">
<rect x="25" y="72" width="153" height="85" fill="#F9F9F9"/>
<path d="M180.985 157.742C190.862 143.042 196.562 125.936 197.478 108.25C198.393 90.5638 194.489 72.961 186.182 57.3201C177.875 41.6793 165.477 28.5875 150.311 19.4419C135.145 10.2964 117.781 5.44029 100.071 5.39197C82.3611 5.34364 64.9705 10.1049 49.7551 19.1675C34.5396 28.2302 22.0704 41.2541 13.6783 56.8494C5.28608 72.4447 1.28587 90.026 2.10456 107.717C2.92324 125.408 8.53009 142.545 18.3267 157.298L99.8041 103.196L180.985 157.742Z" fill="#F9F9F9"/>
<path d="M38.2557 10.945L36.0531 15.0408L40.3732 16.7627L35.7971 15.9335L35.4946 20.5743L34.869 15.9659L30.3619 17.1123L34.5514 15.0933L32.0684 11.161L35.2832 14.5215L38.2557 10.945Z" fill="#B3C3C6"/>
<path d="M207.096 69.6368L204.937 73.6504L209.171 75.3376L204.687 74.5251L204.39 79.0726L203.777 74.5569L199.361 75.6801L203.466 73.7017L201.033 69.8485L204.183 73.1415L207.096 69.6368Z" fill="#B3C3C6"/>
<path d="M147.256 0.217939L147.854 4.5575L151.478 3.43877L148.128 5.37758L150.216 9.0641L147.547 5.92279L145.213 9.31991L146.914 5.43967L143.384 3.85268L147.103 4.59587L147.256 0.217939Z" fill="#B3C3C6"/>
<path d="M2.25045 55.1154L2.56674 57.4102L4.48345 56.8186L2.71186 57.8439L3.8159 59.7934L2.40472 58.1322L1.17034 59.9287L2.06977 57.8767L0.202835 57.0375L2.1699 57.4305L2.25045 55.1154Z" fill="#B3C3C6"/>
<path d="M50.5077 143.969C36.6985 145.372 22.4154 153.908 17 158H182C178.615 156.149 169.308 152.329 159.154 151.862C146.462 151.277 123.138 143.54 120.569 142.8C114.477 141.046 106.12 141.141 99.5 140.339C97.3497 140.078 90.3255 139 87.787 139L77.6019 139L68.2769 139C67.6 139.682 64.3169 142.566 50.5077 143.969Z" fill="#C7C7C7"/>
<path d="M98.031 143.629C95.7973 138.413 80.1233 135.656 75.0228 133.787C67.893 131.179 59.9423 132.974 54.1111 137.562C49.6533 141.074 37.2571 143.044 35.1225 148.603L98.031 143.629Z" fill="#C7C7C7"/>
<path d="M69.0117 96.5119L56.1845 103.528L38.1983 110.716C37.7496 109.901 37.787 108.777 38.0745 107.59C38.8338 104.46 41.3915 100.848 41.3915 100.848C40.5068 96.7332 44.3013 95.5333 44.3013 95.5333C44.6105 93.2901 46.8587 88.5822 47.9553 88.2727C49.0812 87.9848 54.8431 88.7864 54.8431 88.7864C61.5413 86.3399 63.2531 90.0827 63.2531 90.0827L68.2457 91.6379C68.3989 91.7056 68.5306 91.8026 68.6623 91.8995C73.0812 94.5555 69.0117 96.5119 69.0117 96.5119Z" fill="#00AC00"/>
<path d="M85.7889 119.02C85.7889 119.02 91.911 114.49 97.137 106.627C102.363 98.7641 107.312 95.7514 107.312 95.7514L107.495 96.9582C107.495 96.9582 100.21 105.641 97.4797 109.655C94.7494 113.669 90.7156 119.285 90.7156 119.285L85.3169 120.105L85.7889 119.02Z" fill="#46C333"/>
<path d="M107.313 95.7643C107.313 95.7643 93.281 100.663 92.5506 89.0907C91.8183 77.5058 108.866 72.0973 117.954 71.0944C127.056 70.1023 132.531 72.3511 140.23 77.355C140.23 77.355 142.893 79.6538 144.994 79.9716C144.994 79.9716 137.901 92.4847 136.638 97.6927C135.376 102.901 135.276 114.482 123.41 115.244C123.41 115.244 119.3 114.711 116.187 113.638C116.187 113.638 105.587 117.43 102.892 103.96C102.904 103.958 102.247 101.342 107.313 95.7643Z" fill="#00B000"/>
<path d="M96.2239 120.723C100.519 122.904 106.102 132.284 100.975 135.921C98.7986 137.253 96.1024 137.298 93.862 136.066C92.5213 135.282 92.7832 133.24 93.8185 132.356C96.4931 129.857 100.552 129.8 104.006 130.12C107.21 130.686 109.635 136.127 108.476 139.019C107.287 142.059 102.692 141.067 103.81 137.648C106.19 132.608 114.542 136.435 113.875 141.37C113.63 143.695 111.626 146.156 109.065 145.726C108.766 145.642 108.408 145.423 108.323 145.033C108.251 144.641 108.439 144.34 108.582 144.084C109.629 142.509 112.08 142.475 113.385 143.706C115.132 145.286 115.71 147.979 114.886 150.171C114.469 151.274 113.484 152.151 112.342 152.416C110.804 152.727 109.892 152.112 110.477 150.489C111.058 148.751 113.629 148.139 114.737 149.7C115.488 150.625 115.294 151.915 115.886 152.904C116.748 154.385 118.72 155.138 120.33 154.53C118.712 155.165 116.713 154.416 115.839 152.937C115.224 151.965 115.403 150.664 114.656 149.764C113.6 148.287 111.146 148.906 110.628 150.544C110.491 151.007 110.352 151.717 110.716 152.065C111.158 152.322 111.771 152.333 112.298 152.214C117.052 150.999 115.01 141.913 110.145 143.34C109.418 143.516 107.93 144.924 109.176 145.346C111.375 145.701 113.231 143.378 113.388 141.327C113.971 137.041 106.519 133.494 104.404 137.883C103.591 140.489 106.994 140.986 107.797 138.745C108.572 136.743 107.381 134.377 106.318 132.68C105.033 130.64 102.681 130.724 100.517 130.936C98.414 131.125 96.0074 131.451 94.5185 133.029C93.8031 133.709 93.6768 134.846 94.4272 135.252C96.1455 136.213 98.7236 136.159 100.387 135.049C103.237 133.018 101.462 128.947 100.136 126.458C99.0541 124.556 97.4826 122.936 95.6072 121.882L96.2239 120.723Z" fill="#46C333"/>
<path d="M141.745 138.256C141.745 138.256 127.44 138.023 129.052 126.979C129.052 126.979 129.547 120.055 137.625 118.738C137.625 118.738 142.646 110.555 148.299 109.697C148.299 109.697 156.51 115.585 156.292 125.533C156.292 125.533 162.895 140.438 148.803 141.603C148.805 141.615 144.677 142.333 141.745 138.256Z" fill="#00B000"/>
<path d="M132.076 145.273C132.076 145.273 138.302 142.885 140.81 138.008L142.745 139.195C142.745 139.195 141.46 142.627 138.092 144.671L132.076 145.273Z" fill="#46C333"/>
<path d="M167.088 155.812C164.735 154.441 165.568 151.533 164.816 149.321C163.529 145.722 159.053 144.491 155.63 145.739C151.434 144.037 145.738 143.498 143.113 143.844C140.464 144.117 137.877 144.795 135.236 145.027C132.632 145.254 130.517 144.847 128.125 143.82C122.22 141.299 116.769 136.811 112.625 131.943C110.695 129.676 109.088 127.308 106.857 125.281C101.475 120.393 94.5045 117.878 87.2273 118.736C80.7414 119.5 74.7102 122.573 69.4113 126.275C69.4113 126.275 66.0734 128.77 63.6929 134.148L67.0374 137.773C67.4169 135.051 69.5404 128.153 81.0486 124.261C89.3446 121.468 100.547 121.21 106.51 128.817C109.54 132.684 112.495 136.394 116.153 139.686C120.127 143.267 124.837 146.814 130.412 147.241C136.829 147.735 143.043 144.752 149.529 145.612C150.536 145.745 151.518 145.96 152.487 146.268C152.912 146.411 153.387 146.547 153.865 146.695C153.339 147.087 152.878 147.56 152.494 148.112C149.119 152.757 156.847 156.665 160.038 153.374C161.804 150.026 159.742 147.661 156.442 146.122C156.554 146.092 156.639 146.053 156.752 146.023C159.669 145.294 163.404 146.443 164.535 149.442C165.07 150.907 164.908 152.582 165.478 154.107C165.992 155.524 167.923 156.946 169.299 155.827C168.675 156.338 167.735 156.221 167.088 155.812ZM159.559 150.821C159.839 152.234 158.968 153.432 157.484 153.501C151.921 153.839 151.214 149.177 154.662 146.899C156.838 147.622 159.097 148.63 159.559 150.821Z" fill="#46C333"/>
<path d="M54.7203 103.553C51.2123 101.591 45.9695 101.126 42.461 103.439C44.1617 101.973 46.477 101.387 48.6858 101.299C50.999 101.298 53.3014 101.313 55.414 102.473L54.7203 103.553Z" fill="#46C333"/>
<path d="M54.5846 103.522C54.395 101.589 53.3122 99.3357 53.0525 97.2829C52.96 95.6465 53.5446 93.9332 54.7337 92.778C55.7289 91.8861 57.0003 91.6151 58.2102 91.3665C57.045 91.7383 55.8095 92.1598 55.0106 93.0609C52.2719 96.3357 55.2668 99.8837 55.8634 103.471L54.5846 103.522Z" fill="#46C333"/>
<path d="M53.0031 102.009C52.2514 98.7699 49.9577 95.8172 49.0352 92.5654C49.707 94.1659 50.7133 95.5726 51.6727 97.0124C52.6213 98.4668 53.6187 99.9009 54.2502 101.663L53.0031 102.009Z" fill="#46C333"/>
<path d="M54.6898 103.532C53.1996 102.277 51.4736 101.266 49.7114 100.273C47.9607 99.3558 46.2665 98.0405 44.1905 98.1478C46.2445 97.8099 48.15 98.9762 49.9899 99.7105C51.8375 100.496 53.7202 101.34 55.4567 102.506L54.6898 103.532Z" fill="#46C333"/>
<path d="M64.2135 133.043C64.2135 133.043 62.7389 113.487 53.8549 103.335L55.3418 101.744C55.3418 101.744 65.6465 113.721 66.0776 129.914L65.8479 135.42L64.2135 133.043Z" fill="#46C333"/>
<path d="M100.854 102.436C110.385 91.0864 124.67 85.0317 139.055 82.9647C124.874 85.4297 110.896 91.8015 101.835 103.249L100.854 102.436Z" fill="#46C333"/>
<path d="M110.987 93.4255C113.767 93.8481 117.183 94.5249 118.865 97.1286C120.407 99.6627 120.601 102.739 120.621 105.608C120.561 107.528 120.117 109.479 119.101 111.089C120.029 109.415 120.346 107.482 120.308 105.604C119.928 98.7347 118.313 95.0292 110.827 94.6843L110.987 93.4255Z" fill="#46C333"/>
<path d="M108.133 95.002C110.766 88.3773 104.276 81.4094 97.3412 83.4109C104.613 80.8903 111.728 88.0363 109.342 95.4293L108.133 95.002Z" fill="#46C333"/>
<path d="M121.8 87.3521C124.564 89.3757 123.637 93.2852 124.407 96.1313C124.798 98.6192 126.878 99.4858 128.334 101.201C128.737 101.881 128.767 102.682 128.697 103.42C128.702 102.679 128.584 101.904 128.157 101.319C127.72 100.749 127.047 100.422 126.423 99.9968C125.126 99.1542 124.031 97.8518 123.671 96.334C122.8 93.8541 123.361 90.0132 121.15 88.4645L121.8 87.3521Z" fill="#46C333"/>
<path d="M120.835 88.0183C120.623 86.452 119.406 85.0253 118.24 83.6818C114.798 79.669 109.415 76.4836 104.004 77.9939C105.732 77.3936 107.629 77.3006 109.443 77.6099C113.121 78.2082 116.354 80.4203 118.947 83.0287C120.198 84.3333 121.654 85.7106 122.114 87.7981L120.835 88.0183Z" fill="#46C333"/>
<path d="M140.481 139.605C145.439 132.289 148.097 123.347 147.891 114.373C148.522 123.322 146.306 132.521 141.561 140.299L140.481 139.605Z" fill="#46C333"/>
<path d="M82.0831 95.293C82.0831 95.293 84.8505 105.217 78.0501 121.884L82.2697 123.569C82.2697 123.569 87.6951 105.721 87.463 101.026C87.2183 96.3327 84.0987 94.1033 84.0987 94.1033L82.0831 95.293Z" fill="#46C333"/>
<path d="M118.336 80.8081C112.175 84.9925 110.859 91.3912 103.58 91.6387C103.362 91.6588 103.128 91.6554 102.881 91.6539C102.881 91.6539 103.295 92.2408 103.84 93.2627C105.291 96.0574 107.659 102.157 105.329 109.32C105.329 109.32 103.955 118.587 101.358 119.969C98.7859 121.347 97.5748 116.281 97.2102 114.906C96.8437 113.52 92.2998 108.842 89.7017 107.222C87.1035 105.603 83.5996 96.6477 83.5996 96.6477C83.5996 96.6477 71.9634 104.574 59.0582 105.598C59.0582 105.598 57.2341 106.252 56.7572 103.881C56.7572 103.881 56.9184 101.348 57.8786 97.9148C57.8894 97.9002 57.8894 97.9002 57.8855 97.8748C59.3583 92.5958 62.7332 85.2087 70.3377 81.8838L70.3504 81.8819C70.5801 81.769 70.7884 81.6854 71.0328 81.5833C71.0328 81.5833 65.8356 76.7973 55.5639 75.3938C50.2444 74.681 51.7878 72.6923 54.9007 70.8551C57.8201 69.1123 62.1106 67.4991 63.4594 67.1384C66.2585 66.4015 71.3234 61.4999 80.0254 66.8584C80.0254 66.8584 85.0796 49.9894 103.744 51.9769L106.068 52.3C106.068 52.3 105.922 52.4521 105.683 52.7612L105.674 52.7886C104.173 54.628 98.9923 61.6784 98.0395 71.323C98.0007 71.6667 97.9765 72.0213 97.9378 72.3651C97.9378 72.3651 108.534 63.1537 122.983 75.4631C123.087 75.5513 123.219 75.6482 123.34 75.7598C123.351 75.7452 124.675 76.5058 118.336 80.8081Z" fill="#FCC132"/>
<g opacity="0.24">
<path d="M105.342 109.319C105.342 109.319 103.968 118.586 101.371 119.968C98.799 121.346 97.588 116.28 97.2234 114.906C96.8568 113.519 92.3257 108.839 89.7148 107.222C87.1166 105.602 83.6127 96.6469 83.6127 96.6469C83.6127 96.6469 71.9765 104.574 59.0713 105.597C59.0713 105.597 57.2345 106.253 56.7703 103.88C56.7703 103.88 56.9296 101.335 57.8917 97.914C57.6067 99.8026 57.6146 101.738 57.9274 103.627C59.4115 102.959 61.0463 102.685 62.6122 102.214C64.1634 101.731 65.7307 101.012 66.7169 99.719C67.1695 99.1045 67.503 98.391 68.0599 97.8646C69.0366 96.9366 70.5109 96.8038 71.8621 96.7156C74.3915 96.5135 77.0688 96.1719 79.0812 94.6188C80.1642 93.7916 80.9919 92.6523 81.7853 91.5441C82.8804 90.0263 83.9501 88.5123 85.0325 86.9965C85.6107 89.5208 86.2036 92.0559 86.8091 94.5891C87.4756 97.4379 88.1567 100.298 89.3266 102.953C89.4005 103.098 89.4784 103.268 89.6208 103.35C89.818 103.45 90.0555 103.388 90.2675 103.33C91.7445 102.872 93.2233 102.426 94.7129 101.966C95.4069 101.744 96.1829 101.548 96.8505 101.837C97.2975 102.042 97.6006 102.411 97.9703 102.706C99.083 103.616 100.722 103.796 102.007 103.185C103.304 102.572 104.203 101.214 104.308 99.7686C104.397 98.5595 103.984 97.3747 103.724 96.1795C103.525 95.2091 103.452 94.1285 103.851 93.2492C105.304 96.0566 107.658 102.145 105.342 109.319Z" fill="#FF8206"/>
</g>
<g opacity="0.24">
<path d="M118.336 80.8093C112.175 84.9937 110.859 91.3924 103.58 91.6399C103.525 91.6222 103.483 91.6026 103.427 91.5722C102.94 91.3602 102.539 91.0312 102.116 90.7315C98.1463 87.8644 92.6808 85.4193 87.9662 84.0688C87.6401 83.9754 88.3031 84.1477 87.9662 84.0688C88.5108 83.8042 89.0651 83.6031 89.6525 83.4489C91.6006 82.8413 93.6912 82.7447 95.69 83.156C97.9691 83.6157 100.068 84.6876 102.32 85.3074C106.602 86.4637 111.586 85.6549 114.722 82.5146C116.559 80.6632 117.733 78.1198 119.923 76.7087C120.861 76.1244 121.91 75.7572 122.981 75.4516C123.085 75.5398 123.217 75.6367 123.338 75.7483C123.35 75.7464 124.675 76.507 118.336 80.8093Z" fill="#FF8206"/>
</g>
<g opacity="0.24">
<path d="M105.683 52.7605C104.181 54.5999 99.001 61.6504 98.0481 71.2949C97.8026 71.4751 97.5462 71.67 97.3134 71.8483C96.2735 72.617 95.2463 73.3837 94.1771 74.1308C92.5973 75.2804 90.9823 76.3703 89.3119 77.3517C90.8141 76.4608 92.1322 75.299 93.2124 73.9394C93.8704 73.1377 94.4279 72.2734 94.8996 71.357C95.2909 70.5959 95.6217 69.7789 95.6068 68.9104C95.6047 68.4689 95.5099 68.0155 95.5332 67.5701C95.5908 67.0935 95.7939 66.6338 96.0028 66.2122C96.5903 65.0313 97.284 63.9513 98.1056 62.9429C98.8714 61.9949 99.7141 61.1262 100.436 60.1459C101.643 58.5071 102.486 56.6118 103.634 54.93C104.222 54.0998 104.926 53.3431 105.683 52.7605Z" fill="#FF8206"/>
</g>
<g opacity="0.24">
<path d="M94.9825 75.0626C95.2489 76.2178 94.9602 77.4832 94.2159 78.4019C93.5256 79.2475 92.5253 79.7633 91.7198 80.5354C90.8693 81.3533 90.3065 82.4394 89.6539 83.4482L89.6412 83.4501C89.5354 83.6091 89.4188 83.7827 89.311 83.9291C89.216 84.0734 87.8718 83.0949 87.7494 83.2305C86.9456 84.1842 86.1882 84.8451 84.9771 84.743C83.4603 84.5964 83.319 84.436 82.1908 83.4247C80.2474 81.6664 77.5267 80.78 74.9121 81.021C73.4505 81.1519 72.0283 81.6277 70.5801 81.8476C70.5147 81.8446 70.4277 81.8708 70.3623 81.8677C70.5921 81.7549 70.8003 81.6713 71.0447 81.5692C71.0447 81.5692 65.8475 76.7831 55.5758 75.3797C50.2563 74.6668 51.7997 72.6781 54.9126 70.8409C54.7426 71.3475 54.6908 71.8622 54.8577 72.4477C55.2311 73.7945 56.648 74.5671 58.0004 74.8296C59.3763 75.0755 60.7706 74.9288 62.1495 75.1093C63.8722 75.3286 65.465 76.0614 67.0924 76.5941C68.7324 77.1248 70.538 77.4615 72.1577 76.9167C75.2066 75.856 76.5708 72.088 79.4884 70.7613C80.3536 70.383 81.4099 70.2357 82.1815 70.7813C83.2126 71.4954 83.2624 73.0214 84.0615 74.0047C85.1421 75.3871 87.2474 75.3014 88.9295 74.8251C90.3359 74.4166 91.7936 73.8314 93.2137 73.9406C93.4882 73.9509 93.7557 74.0013 94.0271 74.0771C94.0818 74.0947 94.1346 74.0997 94.1765 74.1193C94.3659 74.1686 94.5357 74.2598 94.6605 74.3968C94.8438 74.5769 94.9332 74.8232 94.9825 75.0626Z" fill="#FF8206"/>
</g>
<path d="M83.7555 84.0575C78.7861 85.1369 72.8069 87.0973 69.1143 90.595C65.7966 93.7369 63.9527 98.5394 59.8489 100.527" stroke="#D3B900" stroke-width="0.25" stroke-miterlimit="10"/>
<path d="M84.037 81.3772C83.6433 79.3837 82.7268 77.0277 81.6468 75.3073C80.0158 72.6959 77.0188 71.1885 73.976 70.6629C70.9478 70.148 67.8329 70.5169 64.7911 70.9398C61.7493 71.3626 58.6664 71.8567 55.5986 71.5947" stroke="#D3B900" stroke-width="0.25" stroke-miterlimit="10"/>
<path d="M85.7031 80.6297C85.3971 75.7898 86.9478 69.6543 89.7113 65.6869C93.2967 60.542 98.8771 57.2386 103.497 53.0023" stroke="#D3B900" stroke-width="0.25" stroke-miterlimit="10"/>
<path d="M87.8966 82.4024C92.3288 80.7808 96.8481 79.1329 101.561 78.8462C103.466 78.7259 105.368 78.84 107.262 78.7344C110.858 78.5392 114.381 77.6016 117.865 76.6697" stroke="#D3B900" stroke-width="0.25" stroke-miterlimit="10"/>
<path d="M90.41 73.1057C89.2966 73.9896 88.4698 75.2197 87.8869 76.5168C87.3061 77.8266 87.1165 79.8307 86.8217 81.227C90.3935 79.5021 95.1433 77.8323 97.8325 74.9158" stroke="#D3B900" stroke-width="0.25" stroke-miterlimit="10"/>
<path d="M87.2279 83.5564C90.4522 82.1961 95.3478 81.4009 98.716 82.358" stroke="#D3B900" stroke-width="0.25" stroke-miterlimit="10"/>
<path d="M86.7359 84.5144C87.1289 84.3637 89.0575 85.6824 89.4675 85.8151C90.9348 86.32 91.9101 87.0947 93.2596 87.8515C94.6198 88.5936 95.8624 89.5875 96.7459 90.8699" stroke="#D3B900" stroke-width="0.25" stroke-miterlimit="10"/>
<path d="M86.7363 84.5146C89.998 86.9954 93.8261 91.0667 95.7531 94.6858C96.8266 96.7061 97.4405 98.9521 98.0487 101.16C99.4268 106.214 100.811 111.306 101.033 116.536" stroke="#D3B900" stroke-width="0.25" stroke-miterlimit="10"/>
<path d="M84.4872 85.1164C82.834 85.7832 81.1528 87.8059 79.9321 89.0959C78.7007 90.4005 77.3384 91.6989 75.6104 92.1302" stroke="#D3B900" stroke-width="0.25" stroke-miterlimit="10"/>
<path d="M83.5038 83.1733C80.832 82.2664 76.3493 82.7001 73.6545 83.5252C73.0094 83.7271 72.3116 83.924 71.6879 83.6678" stroke="#D3B900" stroke-width="0.25" stroke-miterlimit="10"/>
<path d="M76.7979 75.3809C77.0985 76.5048 77.9691 77.3603 78.8174 78.1542C80.0781 79.3534 81.3388 80.5525 82.6103 81.737C83.0208 82.1295 83.479 82.5798 83.5023 83.161" stroke="#D3B900" stroke-width="0.25" stroke-miterlimit="10"/>
<path d="M87.7616 82.2321C88.0794 83.4932 87.22 84.8215 85.8373 85.1985C84.4546 85.5756 83.0712 84.8664 82.7555 83.619C82.4377 82.3579 83.297 81.0296 84.6797 80.6525C86.0624 80.2755 87.4459 80.9847 87.7616 82.2321Z" fill="#FAECD0"/>
</svg>
