<svg width="199" height="206" viewBox="0 0 199 206" fill="none" xmlns="http://www.w3.org/2000/svg">
<rect x="26.0059" y="74.8408" width="152.642" height="85.9319" fill="#F9F9F9"/>
<path d="M178.985 162.742C188.862 148.042 194.562 130.936 195.478 113.25C196.393 95.5638 192.489 77.961 184.182 62.3201C175.875 46.6793 163.477 33.5875 148.311 24.4419C133.145 15.2964 115.781 10.4403 98.071 10.392C80.3611 10.3436 62.9705 15.1049 47.7551 24.1675C32.5396 33.2302 20.0704 46.2541 11.6783 61.8494C3.28608 77.4447 -0.714126 95.026 0.104559 112.717C0.923243 130.408 6.53009 147.545 16.3267 162.298L97.8041 108.196L178.985 162.742Z" fill="#F9F9F9"/>
<path d="M163.737 151.21C160.428 148.18 157.099 145.131 153.322 142.771C149.546 140.412 145.243 138.763 140.831 138.784C136.746 138.805 132.732 140.278 129.293 142.576C129.124 142.689 128.965 142.813 128.796 142.926C128.717 142.874 128.637 142.813 128.558 142.761C124.781 140.402 120.478 138.753 116.066 138.774C111.982 138.794 107.967 140.268 104.538 142.565C104.369 142.679 104.2 142.802 104.041 142.916C103.962 142.864 103.882 142.802 103.803 142.751C100.027 140.391 95.7237 138.743 91.3113 138.763C87.227 138.784 83.2121 140.257 79.7737 142.555C76.3353 144.853 73.4434 147.933 70.959 151.302C77.0707 156.289 84.832 159.071 92.6032 159.04C93.1299 159.04 93.6467 159.03 94.1734 158.999C101.1 158.638 108.036 158.463 114.953 158.958C115.758 159.009 116.553 159.04 117.358 159.04C117.885 159.04 118.401 159.03 118.928 158.999C125.855 158.638 132.791 158.463 139.708 158.958C140.513 159.009 141.318 159.04 142.113 159.04C149.914 159.05 157.655 156.227 163.737 151.21Z" fill="#C7C7C7"/>
<path d="M130.909 154.065C127.6 151.035 124.271 147.986 120.494 145.626C116.718 143.267 112.415 141.618 108.003 141.639C103.918 141.66 99.9034 143.133 96.465 145.431C96.296 145.544 96.137 145.668 95.9681 145.781C95.8886 145.729 95.8091 145.668 95.7296 145.616C91.9533 143.257 87.6503 141.608 83.2379 141.629C79.1535 141.649 75.1387 143.123 71.7102 145.42C71.5413 145.534 71.3724 145.657 71.2134 145.771C71.1339 145.719 71.0544 145.657 70.9748 145.606C67.1985 143.246 62.8955 141.598 58.4832 141.618C54.3988 141.639 50.384 143.112 46.9456 145.41C43.5071 147.708 40.6153 150.788 38.1309 154.157C44.2425 159.144 52.0038 161.926 59.7751 161.895C60.3018 161.895 60.8186 161.885 61.3452 161.854C68.2718 161.493 75.2083 161.318 82.1249 161.813C82.9299 161.864 83.7249 161.895 84.5298 161.895C85.0565 161.895 85.5733 161.885 86.1 161.854C93.0265 161.493 99.963 161.318 106.88 161.813C107.685 161.864 108.49 161.895 109.285 161.895C117.086 161.905 124.827 159.082 130.909 154.065Z" fill="#DBDBDB"/>
<path d="M97.1474 108.753C96.8394 114.402 92.1425 118.463 86.4218 116.544C86.0167 116.406 85.62 116.249 85.2422 116.06C83.2187 115.079 81.5596 113.465 80.262 111.66C75.6303 105.199 75.4904 95.8488 79.9175 88.7692C80.6048 87.6707 81.425 86.5166 81.3604 85.2656C81.3344 84.7789 81.1718 84.2978 81.2701 83.8091C81.3547 83.3713 81.7914 82.9335 82.2146 82.9853C82.2601 82.9891 82.3035 83.0021 82.3479 83.019C82.7508 83.1833 82.7972 83.6982 82.9428 84.0948C83.2503 84.9343 84.1442 85.3821 84.9305 85.8271C90.6947 89.0708 93.8707 95.3111 95.8902 101.525C96.6408 103.859 97.2821 106.272 97.1474 108.753Z" fill="#FFC56E"/>
<path d="M90.8216 115.063C89.5624 115.385 88.1866 115.32 86.8029 114.857C84.8736 114.211 83.0817 112.793 81.622 110.754C79.7219 108.106 78.6913 104.864 78.6376 101.382C78.585 97.9032 79.5165 94.5267 81.3346 91.6215C81.389 91.5376 81.4424 91.4497 81.4968 91.3657C82.0124 90.5556 82.5427 89.7157 82.4944 88.8435C82.4879 88.7133 82.4681 88.5827 82.4451 88.4403C82.4023 88.1672 82.3617 87.8851 82.4205 87.591C82.4814 87.2879 82.6956 86.9914 82.974 86.8424C83.1818 86.7309 83.3994 86.7104 83.5936 86.7904C83.9314 86.9267 84.0307 87.2642 84.12 87.5621C84.1433 87.6363 84.1635 87.7157 84.19 87.7847C84.4059 88.3696 85.024 88.7143 85.6215 89.0479L85.7567 89.1237C89.7831 91.389 92.7758 95.6673 94.8989 102.2C95.5135 104.088 96.064 106.127 95.9492 108.231C95.808 110.756 94.6542 112.927 92.7781 114.188C92.1687 114.595 91.5124 114.888 90.8216 115.063ZM83.2497 87.1373C83.2165 87.1469 83.1843 87.1605 83.1531 87.1781C82.9889 87.2684 82.8459 87.459 82.8085 87.6446C82.7646 87.8746 82.7983 88.112 82.836 88.3652C82.8589 88.5076 82.8787 88.6553 82.885 88.8026C82.9388 89.801 82.3719 90.6899 81.8259 91.5556C81.7715 91.6396 81.7172 91.7235 81.6679 91.8103C78.0641 97.5729 78.1834 105.267 81.9507 110.522C83.3673 112.497 85.0943 113.87 86.9502 114.49C88.9673 115.166 90.958 114.95 92.5554 113.873C94.3212 112.688 95.4101 110.629 95.5433 108.23C95.6556 106.186 95.1152 104.187 94.5087 102.331C92.413 95.8876 89.4768 91.6739 85.533 89.4528L85.3978 89.377C84.7745 89.0296 84.0677 88.634 83.807 87.9257C83.7785 87.8487 83.7521 87.7626 83.7309 87.6793C83.661 87.4397 83.593 87.2081 83.4195 87.1391C83.3668 87.1246 83.3119 87.1192 83.2497 87.1373Z" fill="#FF8206"/>
<path d="M84.8741 112.008C85.2176 112.377 85.5944 112.736 86.079 112.907C86.5667 113.072 87.1917 112.988 87.5349 112.586C88.1036 111.914 87.5741 110.973 87.0709 110.309C85.4256 108.137 84.0883 105.739 83.0853 103.201C82.5797 101.916 82.1573 100.59 81.8282 99.2451C81.6172 98.3817 81.6339 96.2252 80.9412 95.7105C78.9361 101.171 81.1834 108.052 84.8741 112.008Z" fill="#FAECD0"/>
<path d="M97.1467 108.753C96.8387 114.402 92.1417 118.463 86.421 116.544C86.0159 116.406 85.6193 116.249 85.2414 116.06C87.8941 116.449 90.738 115.926 93.1366 114.565C93.6428 114.278 94.1346 113.952 94.538 113.541C95.1581 112.913 95.5494 112.105 95.827 111.288C96.6394 108.896 96.55 106.323 95.9789 103.941C95.4068 101.555 94.3791 99.322 93.3326 97.1204C92.2738 94.8884 91.184 92.6568 89.7042 90.6791C88.2203 88.7025 86.3195 86.979 83.9768 86.04C83.6204 85.9006 83.2536 85.7727 82.9547 85.5442C82.3518 85.0843 81.9959 83.8796 82.22 82.9922C82.2656 82.996 82.309 83.009 82.3534 83.0259C82.7562 83.1902 82.8027 83.7051 82.9483 84.1016C83.2557 84.9412 84.1497 85.389 84.936 85.834C90.7001 89.0777 93.8762 95.318 95.8957 101.532C96.6401 103.859 97.2814 106.272 97.1467 108.753Z" fill="#FFD39F"/>
<path d="M115.756 75.6828C112.335 79.1043 106.458 78.9494 103.172 74.3854C102.94 74.0608 102.726 73.7287 102.544 73.3878C101.552 71.581 101.196 69.5827 101.224 67.6744C101.332 60.8507 106.499 54.8088 113.873 52.8815C115.017 52.5827 116.294 52.326 116.951 51.4909C117.206 51.1655 117.353 50.7638 117.703 50.5097C118.015 50.28 118.595 50.2559 118.889 50.5362C118.922 50.5652 118.948 50.5988 118.972 50.6356C119.187 50.9755 118.932 51.3309 118.82 51.6687C118.581 52.3834 119.011 53.191 119.36 53.9338C121.932 59.368 120.837 65.2008 118.874 70.3413C118.13 72.2676 117.259 74.1803 115.756 75.6828Z" fill="#FFC56E"/>
<path d="M107.367 76.0113C106.224 75.4817 105.21 74.6367 104.415 73.5333C103.306 71.9949 102.738 70.0441 102.773 67.8919C102.816 65.094 103.858 62.4258 105.781 60.1746C107.703 57.9265 110.319 56.3182 113.346 55.5282C113.435 55.5064 113.525 55.4815 113.614 55.4598C114.465 55.2445 115.344 55.0189 115.799 54.4346C115.867 54.3479 115.926 54.253 115.988 54.1488C116.11 53.9498 116.238 53.7461 116.449 53.5931C116.666 53.4354 116.997 53.3715 117.294 53.4391C117.515 53.4895 117.693 53.6034 117.796 53.7678C117.977 54.052 117.863 54.3252 117.763 54.5672C117.739 54.6281 117.709 54.6905 117.691 54.75C117.525 55.2489 117.803 55.8296 118.071 56.3912L118.132 56.5185C119.928 60.3141 119.8 64.7891 117.736 70.1937C117.14 71.7561 116.41 73.3772 115.136 74.6514C113.604 76.1785 111.498 76.8887 109.355 76.5964C108.66 76.4999 107.993 76.3032 107.367 76.0113ZM117.338 53.7881C117.307 53.7749 117.275 53.7648 117.241 53.7578C117.065 53.7194 116.848 53.7574 116.715 53.8538C116.551 53.9748 116.443 54.1458 116.329 54.3292C116.266 54.4334 116.198 54.5391 116.12 54.6367C115.598 55.3045 114.664 55.5401 113.758 55.7731C113.669 55.7948 113.581 55.8166 113.494 55.8431C107.492 57.4118 103.243 62.3861 103.155 67.9361C103.123 70.0223 103.667 71.9064 104.734 73.3856C105.893 74.9944 107.535 76.0195 109.362 76.2658C111.379 76.5413 113.372 75.8649 114.827 74.4134C116.065 73.1763 116.78 71.5864 117.364 70.0488C119.399 64.7177 119.534 60.3169 117.775 56.5976L117.715 56.4704C117.435 55.8849 117.118 55.2199 117.319 54.6162C117.34 54.5505 117.369 54.4802 117.399 54.4147C117.481 54.2211 117.56 54.0338 117.466 53.8885C117.434 53.8484 117.396 53.813 117.338 53.7881Z" fill="#FF8206"/>
<path d="M104.549 70.5893C104.603 71.0252 104.688 71.4743 104.962 71.8659C105.242 72.2561 105.766 72.5679 106.255 72.512C107.068 72.4157 107.195 71.5064 107.185 70.7896C107.154 68.4438 107.486 66.1339 108.151 63.9303C108.49 62.816 108.916 61.724 109.423 60.6747C109.749 60.0011 110.978 58.6362 110.739 57.9036C106.128 60.2133 103.963 65.9119 104.549 70.5893Z" fill="#FAECD0"/>
<path d="M115.757 75.6817C112.335 79.1032 106.458 78.9483 103.172 74.3843C102.941 74.0597 102.727 73.7276 102.544 73.3868C104.351 75.1839 106.817 76.5115 109.416 77.0448C109.965 77.1572 110.524 77.2366 111.064 77.2102C111.891 77.1724 112.646 76.8859 113.319 76.5267C115.289 75.4766 116.672 73.7842 117.58 71.9322C118.489 70.077 118.963 68.0537 119.406 66.0391C119.857 63.9979 120.283 61.9389 120.269 59.8139C120.251 57.6873 119.772 55.4786 118.513 53.5118C118.319 53.2147 118.111 52.919 118.012 52.5988C117.811 51.9535 118.219 50.9777 118.89 50.543C118.923 50.572 118.949 50.6056 118.973 50.6423C119.188 50.9823 118.933 51.3376 118.821 51.6755C118.582 52.3902 119.012 53.1978 119.361 53.9406C121.933 59.3748 120.838 65.2076 118.875 70.3481C118.13 72.2666 117.259 74.1792 115.757 75.6817Z" fill="#FFD39F"/>
<path d="M104.713 30.0993C100.607 32.9884 95.1969 31.9459 93.391 26.9053C93.2646 26.5471 93.1565 26.1842 93.0804 25.8173C92.652 23.8684 92.8658 21.8251 93.4107 19.9293C95.3688 13.152 101.808 7.91778 109.174 7.11355C110.317 6.98901 111.572 6.92653 112.408 6.19427C112.733 5.90881 112.979 5.53115 113.373 5.3312C113.725 5.1496 114.27 5.21339 114.466 5.5368C114.489 5.57064 114.503 5.60801 114.516 5.64827C114.623 6.01925 114.29 6.33447 114.093 6.6538C113.677 7.32931 113.856 8.19831 113.978 8.9907C114.884 14.7897 112.28 20.4313 109.059 25.2524C107.845 27.0579 106.516 28.8304 104.713 30.0993Z" fill="#FFC56E"/>
<path d="M96.8409 29.1579C95.9241 28.4578 95.2136 27.4632 94.7763 26.2445C94.1664 24.5452 94.1705 22.5172 94.7895 20.3798C95.5911 17.6007 97.2838 15.1017 99.6812 13.1511C102.076 11.2034 104.941 9.99764 107.965 9.66858C108.053 9.66035 108.144 9.64924 108.232 9.64101C109.08 9.55531 109.956 9.46345 110.538 8.95059C110.625 8.87458 110.705 8.78898 110.792 8.69474C110.958 8.51491 111.133 8.33153 111.37 8.21099C111.615 8.08691 111.939 8.07326 112.196 8.18546C112.388 8.26905 112.521 8.4094 112.572 8.58866C112.663 8.89892 112.482 9.15362 112.324 9.37948C112.285 9.4365 112.241 9.49417 112.207 9.55054C111.918 10.0223 112.017 10.6424 112.113 11.2421L112.135 11.3779C112.768 15.4284 111.431 19.8644 108.044 24.9331C107.066 26.3987 105.948 27.9023 104.419 28.9783C102.581 30.267 100.434 30.6558 98.5253 30.0408C97.9069 29.8397 97.3423 29.5432 96.8409 29.1579ZM112.142 8.5396C112.117 8.52175 112.09 8.5068 112.06 8.49472C111.907 8.42989 111.696 8.43493 111.546 8.51079C111.361 8.60658 111.214 8.76045 111.059 8.92587C110.972 9.02011 110.88 9.11501 110.781 9.20033C110.115 9.78632 109.184 9.8796 108.28 9.97473C108.192 9.98296 108.104 9.99119 108.016 10.0045C102.02 10.659 96.7239 14.9692 95.1316 20.4815C94.5336 22.5536 94.5252 24.5116 95.1127 26.1457C95.75 27.9226 96.9939 29.1914 98.6222 29.7128C100.419 30.2919 102.452 29.9198 104.197 28.6946C105.682 27.6501 106.779 26.1753 107.739 24.7328C111.078 19.7326 112.401 15.3715 111.782 11.4028L111.761 11.267C111.661 10.6418 111.548 9.93186 111.898 9.3611C111.936 9.29896 111.982 9.23328 112.028 9.17272C112.157 8.99235 112.281 8.81775 112.234 8.65894C112.215 8.61423 112.188 8.57305 112.142 8.5396Z" fill="#FF8206"/>
<path d="M95.7015 23.3356C95.6331 23.7777 95.5897 24.2376 95.7372 24.6689C95.89 25.0996 96.2915 25.4893 96.7603 25.5076C97.5411 25.5346 97.9062 24.6485 98.0921 23.9333C98.7022 21.5932 99.6389 19.3436 100.857 17.2503C101.474 16.1921 102.166 15.1693 102.922 14.2012C103.408 13.5799 104.92 12.4068 104.898 11.6413C99.9914 13.2439 96.431 18.5901 95.7015 23.3356Z" fill="#FAECD0"/>
<path d="M104.713 30.0993C100.607 32.9885 95.197 31.9459 93.3911 26.9053C93.2648 26.5471 93.1566 26.1842 93.0805 25.8173C94.2668 27.8795 96.1936 29.5741 98.4598 30.498C98.9382 30.6927 99.4356 30.8564 99.9437 30.9117C100.722 30.9991 101.5 30.8279 102.222 30.5721C104.335 29.8243 106.079 28.3484 107.425 26.6417C108.774 24.9322 109.765 22.9895 110.724 21.0507C111.698 19.0866 112.655 17.1011 113.22 14.9834C113.782 12.8634 113.939 10.5919 113.306 8.44341C113.208 8.11846 113.095 7.79259 113.09 7.45875C113.08 6.78597 113.724 5.8761 114.465 5.54477C114.487 5.57861 114.502 5.61598 114.515 5.65624C114.622 6.02722 114.288 6.34244 114.092 6.66178C113.676 7.33729 113.855 8.20628 113.977 8.99869C114.883 14.7977 112.279 20.4393 109.058 25.2605C107.845 27.0579 106.516 28.8305 104.713 30.0993Z" fill="#FFD39F"/>
<path d="M53.8552 162.994C53.4875 162.71 47.2113 151.099 43.2814 156.754C43.2814 156.754 36.8909 136.384 28.6562 137.487C20.4034 138.59 27.6644 153.666 27.6644 153.666C27.6644 153.666 20.5421 150.886 22.306 158.529C22.306 158.529 13.2651 157.052 14.0473 163.514L53.8552 162.994Z" fill="#B1E5D5"/>
<path d="M67.6444 51.6754L65.4418 55.7713L69.7619 57.4931L65.1858 56.664L64.8832 61.3047L64.2577 56.6964L59.7506 57.8427L63.9401 55.8237L61.4571 51.8915L64.6719 55.252L67.6444 51.6754Z" fill="#B3C3C6"/>
<path d="M150.255 86.7725L148.097 90.7861L152.33 92.4733L147.846 91.6608L147.549 96.2083L146.936 91.6926L142.52 92.8159L146.625 90.8375L144.192 86.9842L147.342 90.2772L150.255 86.7725Z" fill="#B3C3C6"/>
<path d="M135.415 34.3537L136.013 38.6932L139.637 37.5745L136.287 39.5133L138.375 43.1998L135.707 40.0585L133.372 43.4557L135.073 39.5754L131.543 37.9884L135.262 38.7316L135.415 34.3537Z" fill="#B3C3C6"/>
<path d="M37.3371 87.3041L37.9829 91.9896L41.8964 90.7817L38.2792 92.8751L40.5334 96.8555L37.6521 93.4638L35.1317 97.1318L36.9682 92.9421L33.1563 91.2286L37.1726 92.0311L37.3371 87.3041Z" fill="#B3C3C6"/>
<path d="M140.54 141.266L121.898 119.93C121.898 119.93 96.761 142.173 104.918 156.656C112.926 170.828 140.54 141.266 140.54 141.266Z" fill="#CD5A24"/>
<path d="M121.623 140.399C122.393 141.5 127.389 137.533 128.737 136.176L194.201 69.9581C196.65 67.2988 197.508 63.6918 196.176 61.4958L196.106 61.4074C194.484 58.6791 190.317 59.2785 187.368 62.643L125.643 132.578C124.522 133.911 120.904 139.416 121.623 140.399Z" fill="#E6E2E0"/>
<path d="M158.296 163.029C158.296 163.029 148.729 153.722 144.12 152.148C139.51 150.574 134.273 149.466 128.909 149.481C123.928 149.495 119.049 150.486 114.862 152.017C114.657 152.09 114.453 152.177 114.248 152.25C114.145 152.214 114.056 152.177 113.953 152.141C109.344 150.566 104.107 149.459 98.7419 149.473C93.7611 149.488 88.8827 150.479 84.6958 152.009C84.4909 152.082 84.286 152.17 84.0812 152.243C83.9787 152.206 83.8891 152.17 83.7866 152.133C79.1771 150.559 73.9402 149.451 68.5753 149.466C63.5945 149.481 60.4916 151.186 56.5342 153.423C52.0468 155.96 47.1185 160.711 44.0967 162.963C54.5292 163.029 60.7008 163.043 70.163 163.029C70.8032 163.029 71.4434 163.022 72.0708 163C80.5088 162.759 88.9595 162.643 97.3846 162.971C98.3578 163.007 99.3437 163.029 100.317 163.022C100.957 163.022 101.597 163.014 102.225 162.992C110.663 162.752 119.113 162.635 127.538 162.963C128.512 163 129.498 163.022 130.471 163.014C139.971 163.029 158.296 163.029 158.296 163.029Z" fill="#003E26"/>
<path d="M142.324 163.291C142.696 163.013 149.167 151.51 153.001 157.23C153.001 157.23 159.735 136.971 167.95 138.213C176.183 139.455 168.668 154.407 168.668 154.407C168.668 154.407 175.837 151.747 173.944 159.359C173.944 159.359 183.008 158.035 182.117 164.483L142.324 163.291Z" fill="#B1E5D5"/>
</svg>
