<svg width="212" height="201" viewBox="0 0 212 201" fill="none" xmlns="http://www.w3.org/2000/svg">
<rect x="26" y="70" width="153" height="85" fill="#F9F9F9"/>
<path d="M180.985 157.742C190.929 142.943 196.638 125.707 197.495 107.898C198.352 90.0891 194.325 72.3846 185.849 56.6987C177.372 41.0129 164.769 27.9425 149.403 18.9008C134.036 9.85903 116.49 5.18992 98.6612 5.39828C80.8328 5.60664 63.4006 10.6845 48.2492 20.0829C33.0978 29.4813 20.8038 42.8427 12.6963 58.7223C4.58889 74.602 0.976485 92.3958 2.24969 110.18C3.52289 127.964 9.63325 145.062 19.9201 159.624L99.8041 103.196L180.985 157.742Z" fill="#F9F9F9"/>
<path d="M62.4793 155.124C62.2103 154.916 57.6177 146.42 54.7421 150.558C54.7421 150.558 50.0659 135.652 44.0403 136.459C38.0014 137.267 43.3146 148.299 43.3146 148.299C43.3146 148.299 38.1029 146.264 39.3936 151.857C39.3936 151.857 32.7781 150.776 33.3504 155.505L62.4793 155.124Z" fill="#B1E5D5"/>
<path d="M163.647 154.882C163.647 154.882 153.724 144.298 148.942 142.508C144.161 140.718 138.729 139.458 133.164 139.475C127.998 139.491 122.937 140.618 118.594 142.359C118.382 142.442 118.169 142.541 117.957 142.624C117.851 142.583 117.758 142.541 117.651 142.5C112.87 140.71 107.438 139.45 101.873 139.466C96.7068 139.483 91.6466 140.61 87.3036 142.351C87.0911 142.434 86.8786 142.533 86.6661 142.616C86.5598 142.574 86.4668 142.533 86.3606 142.492C81.5793 140.701 76.1472 139.442 70.5823 139.458C65.4159 139.475 60.6396 140.618 56.2966 142.359C51.9779 145.628 48.3258 152.246 45.1914 154.807C56.0127 154.882 62.4143 154.898 72.2292 154.882C72.8933 154.882 73.5574 154.873 74.2082 154.849C82.9606 154.575 91.7263 154.443 100.465 154.815C101.475 154.857 102.497 154.882 103.507 154.873C104.171 154.873 104.835 154.865 105.486 154.84C114.238 154.567 123.004 154.434 131.743 154.807C132.752 154.849 133.775 154.873 134.784 154.865C144.639 154.882 163.647 154.882 163.647 154.882Z" fill="#003E26"/>
<path d="M95.1791 57.354C95.1791 57.354 84.4424 42.2376 72.1396 55.35C72.1396 55.35 69.7507 57.4601 76.9704 59.9817C83.5664 62.2777 98.1121 61.0568 95.1791 57.354Z" fill="#00B000"/>
<path d="M96.9705 60.4067C90.9585 55.2972 82.3054 54.3018 74.7539 55.7882L75.1653 55.7352L74.7539 55.828C82.3718 53.4922 91.3965 54.0762 98.1385 58.8938L96.9705 60.4067Z" fill="#46C333"/>
<path d="M156.109 111.569C155.393 127.495 148.611 136.626 140.82 141.842C140.807 141.842 140.807 141.855 140.807 141.855C129.513 149.42 116.122 148.796 116.122 148.796C102.797 151.702 93.6399 148.185 93.6399 148.185C93.6399 148.185 83.0093 150.004 72.0736 145.916C67.6541 144.27 63.1683 141.656 59.3196 137.555C56.4131 134.463 54.1038 130.999 52.3387 127.362C45.2915 112.923 46.8443 95.6698 53.6791 87.0034C65.9819 71.396 85.5708 75.2182 85.5708 75.2182L88.2649 74.4883H104.815L115.578 74.8334C121.537 74.4087 126.633 74.8864 130.973 76.0278C156.295 82.6503 156.109 111.569 156.109 111.569Z" fill="#FF8206"/>
<g opacity="0.5">
<path d="M135.511 94.7929C135.511 119.544 113.427 139.585 86.1936 139.585C73.0812 139.585 61.1766 134.939 52.3377 127.361C45.2905 112.922 46.8433 95.6688 53.6782 87.0024C65.9809 71.3951 85.5698 75.2173 85.5698 75.2173L88.2639 74.4873H104.814L115.577 74.8324C121.549 74.3944 126.632 74.8855 130.972 76.0268C133.878 81.7469 135.511 88.0907 135.511 94.7929Z" fill="#FFA300"/>
</g>
<path d="M90.3749 75.0977C90.3749 75.0977 79.6913 80.393 79.0675 108.834C78.4438 137.275 89.0345 145.716 89.0345 145.716L90.3749 145.45C90.3749 145.45 78.8684 132.073 80.7795 109.206C82.6641 86.3254 85.5308 81.0168 90.3749 75.0977Z" fill="#FF6E00"/>
<path d="M106.486 75.0977C106.486 75.0977 112.18 87.6658 110.388 117.633C110.388 117.633 109.857 139.797 106.486 148.237C106.486 148.237 112.445 138.27 111.649 100.858C111.636 100.845 110.561 80.9239 106.486 75.0977Z" fill="#FF6E00"/>
<path d="M119.625 84.1631C119.625 84.1631 128.902 100.925 126.712 123.739C126.712 123.739 125.889 139.054 123.845 142.041C123.845 142.041 128.689 134.051 127.973 112.697C127.256 91.3297 119.625 84.1631 119.625 84.1631Z" fill="#FF6E00"/>
<path d="M120.966 78.3232C120.966 78.3232 134.782 84.7865 136.666 107.932C136.666 107.932 138.644 126.871 132.897 140.328C132.897 140.328 140.621 110.454 130.389 90.8914C130.389 90.8914 126.447 82.9019 120.966 78.3232Z" fill="#FF6E00"/>
<path d="M82.8372 77.8721C82.8372 77.8721 70.5477 84.9591 69.831 106.671C69.1143 128.384 74.7149 138.523 79.0415 143.195C79.0415 143.195 68.1455 125.783 72.0739 101.92C72.0739 101.92 73.2285 87.7461 82.8372 77.8721Z" fill="#FF6E00"/>
<path d="M74.0369 80.752C74.0369 80.752 58.1508 87.2152 57.6199 107.853C57.0758 128.49 67.1356 140.328 67.1356 140.328C67.1356 140.328 57.4474 124.535 59.3319 105.968C61.2032 87.3878 74.0369 80.752 74.0369 80.752Z" fill="#FF6E00"/>
<path d="M66.3268 80.752C66.3268 80.752 48.4765 87.3878 50.0027 109.83C50.0027 109.83 50.1753 120.686 54.4885 127.415C54.4885 127.415 47.3086 108.569 53.7719 94.8464C53.7586 94.8331 57.2623 86.5782 66.3268 80.752Z" fill="#FF6E00"/>
<path d="M143.767 93.665C143.767 93.665 153.283 113.586 139.732 138.616C139.719 138.629 156.68 116.107 143.767 93.665Z" fill="#FF6E00"/>
<path d="M86.0619 74.4613C86.0619 74.4613 80.3949 76.0273 76.2939 78.8542C76.2939 78.8542 85.9424 75.7885 89.7248 75.8814C89.7248 75.8814 88.61 77.0891 87.3094 78.3101C87.3094 78.3101 94.3699 75.0851 101.921 75.6159C109.473 76.1601 115.485 79.7434 115.485 79.7434L109.924 76.3326C109.924 76.3326 118.537 75.7088 125.001 76.6909C125.001 76.6909 120.064 74.2622 112.353 74.448C104.642 74.6206 97.2763 72.5635 97.2763 72.5635C97.2763 72.5635 90.906 72.8289 90.3618 72.9218C89.831 73.028 86.0619 74.4613 86.0619 74.4613Z" fill="#FFAD48"/>
<path d="M121.324 76.93C121.324 76.93 137.476 74.926 146.354 91.7013C146.368 91.7013 138.922 80.5531 121.324 76.93Z" fill="#FF9700"/>
<path d="M150.854 91.1575C150.854 91.1575 141.789 77.7001 122.134 75.0989C122.134 75.0989 139.997 74.4618 150.854 91.1575Z" fill="#FF9700"/>
<path d="M107.88 91.1565C107.88 95.5626 105.411 99.146 102.359 99.146C99.3064 99.146 96.8379 95.5626 96.8379 91.1565C96.8379 86.7503 99.3064 83.167 102.359 83.167C105.411 83.167 107.88 86.7503 107.88 91.1565Z" fill="#FF9C43"/>
<path d="M119.387 91.3557C119.652 94.3285 118.219 96.8899 116.162 97.0757C114.104 97.2615 112.233 95.0053 111.954 92.0325C111.689 89.0597 113.122 86.5115 115.179 86.3125C117.223 86.1267 119.108 88.3829 119.387 91.3557Z" fill="#FF9C43"/>
<path d="M117.874 96.1201C117.874 96.5846 117.502 96.9429 117.051 96.9429C116.586 96.9429 116.215 96.5713 116.215 96.1201C116.215 95.6688 116.586 95.2972 117.051 95.2972C117.502 95.2839 117.874 95.6555 117.874 96.1201Z" fill="#FDB65D"/>
<path d="M116.215 75.0848H86.035H86.0217H85.5041C85.5041 75.0848 85.4377 74.9786 85.5041 74.7796C85.6766 74.262 86.6853 73.0941 91.6356 71.329L96.8513 64.2021L95.6701 57.1947L93.1751 52.7089L93.0424 52.4833C93.0424 52.4833 93.9316 50.1873 96.2408 50.0148C96.5593 49.9882 96.9044 50.0015 97.276 50.0679L101.934 56.8629C101.934 56.8629 102.943 61.8398 103.739 63.7243C104.549 65.6089 109.592 71.7404 109.592 71.7404C109.592 71.7404 114.821 73.5453 116.215 75.0848Z" fill="#46C333"/>
<path d="M98.6299 65.6082C98.2318 67.36 95.8031 70.5187 95.8031 70.5187L92.1799 73.7437C92.1799 73.7437 86.3935 75.0178 86.0484 75.0841H86.0352C85.9423 75.0841 85.7565 74.9647 85.5176 74.7789C85.6901 74.2613 86.6987 73.0934 91.649 71.3283L96.8648 64.2014L95.6836 57.194L93.1886 52.7082C94.2768 52.4694 95.9756 52.549 96.8648 55.044C98.2185 58.8662 99.0281 63.8563 98.6299 65.6082Z" fill="#39B523"/>
<path d="M116.214 75.0848H116.055H101.191L102.372 73.3463L104.416 70.9175C104.416 70.9175 101.324 64.4012 100.66 63.512C99.9965 62.6361 100.315 60.141 100.182 58.4688C100.05 56.7833 98.9746 54.2351 98.165 52.6293C97.7669 51.833 96.9706 50.8376 96.2539 50.0148C96.5724 49.9882 96.9175 50.0015 97.2891 50.0679L101.947 56.8629C101.947 56.8629 102.956 61.8398 103.752 63.7243C104.562 65.6089 109.605 71.7404 109.605 71.7404C109.605 71.7404 114.821 73.5453 116.214 75.0848Z" fill="#00B000"/>
<path d="M140.886 141.775C140.873 141.788 140.86 141.801 140.82 141.841C140.807 141.841 140.807 141.854 140.807 141.854C129.513 149.432 116.122 148.795 116.122 148.795C102.797 151.702 93.6396 148.185 93.6396 148.185C93.6396 148.185 83.009 150.003 72.0732 145.915C75.1124 145.464 79.9168 145.132 86.0615 145.982C86.0615 145.982 81.4961 143.819 79.9566 140.328C79.9566 140.328 102.571 155.763 125.359 140.341C125.292 140.58 124.111 144.442 118.272 147.19C118.272 147.19 133.879 146.261 140.886 141.775Z" fill="#EE5600"/>
<path d="M144.212 154.748C144.485 154.545 149.22 146.128 152.026 150.314C152.026 150.314 156.953 135.489 162.964 136.398C168.988 137.307 163.49 148.248 163.49 148.248C163.49 148.248 168.735 146.302 167.35 151.872C167.35 151.872 173.983 150.902 173.331 155.621L144.212 154.748Z" fill="#B1E5D5"/>
<path d="M38.2557 10.945L36.0531 15.0408L40.3732 16.7627L35.7971 15.9335L35.4946 20.5743L34.869 15.9659L30.3619 17.1123L34.5514 15.0933L32.0684 11.161L35.2832 14.5215L38.2557 10.945Z" fill="#B3C3C6"/>
<path d="M207.096 69.6368L204.937 73.6504L209.171 75.3376L204.687 74.5251L204.39 79.0726L203.777 74.5569L199.361 75.6801L203.466 73.7017L201.033 69.8485L204.183 73.1415L207.096 69.6368Z" fill="#B3C3C6"/>
<path d="M147.256 0.217939L147.854 4.5575L151.478 3.43877L148.128 5.37758L150.216 9.0641L147.547 5.92279L145.213 9.31991L146.914 5.43967L143.384 3.85268L147.103 4.59587L147.256 0.217939Z" fill="#B3C3C6"/>
<path d="M2.25045 55.1154L2.56674 57.4102L4.48345 56.8186L2.71186 57.8439L3.8159 59.7934L2.40472 58.1322L1.17034 59.9287L2.06977 57.8767L0.202835 57.0375L2.1699 57.4305L2.25045 55.1154Z" fill="#B3C3C6"/>
</svg>
