<svg width="212" height="201" viewBox="0 0 212 201" fill="none" xmlns="http://www.w3.org/2000/svg">
<rect x="26.0059" y="69.8408" width="152.642" height="85.9319" fill="#F9F9F9"/>
<path d="M180.985 157.742C190.862 143.042 196.562 125.936 197.478 108.25C198.393 90.5638 194.489 72.961 186.182 57.3201C177.875 41.6793 165.477 28.5875 150.311 19.4419C135.145 10.2964 117.781 5.44029 100.071 5.39197C82.3611 5.34364 64.9705 10.1049 49.7551 19.1675C34.5396 28.2302 22.0704 41.2541 13.6783 56.8494C5.28608 72.4447 1.28587 90.026 2.10456 107.717C2.92324 125.408 8.53009 142.545 18.3267 157.298L99.8041 103.196L180.985 157.742Z" fill="#F9F9F9"/>
<path d="M38.2557 10.945L36.0531 15.0408L40.3732 16.7627L35.7971 15.9335L35.4946 20.5743L34.869 15.9659L30.3619 17.1123L34.5514 15.0933L32.0684 11.161L35.2832 14.5215L38.2557 10.945Z" fill="#B3C3C6"/>
<path d="M207.096 69.6368L204.937 73.6504L209.171 75.3376L204.687 74.5251L204.39 79.0726L203.777 74.5569L199.361 75.6801L203.466 73.7017L201.033 69.8485L204.183 73.1415L207.096 69.6368Z" fill="#B3C3C6"/>
<path d="M147.256 0.217939L147.854 4.5575L151.478 3.43877L148.128 5.37758L150.216 9.0641L147.547 5.92279L145.213 9.31991L146.914 5.43967L143.384 3.85268L147.103 4.59587L147.256 0.217939Z" fill="#B3C3C6"/>
<path d="M2.25045 55.1154L2.56674 57.4102L4.48345 56.8186L2.71186 57.8439L3.8159 59.7934L2.40472 58.1322L1.17034 59.9287L2.06977 57.8767L0.202835 57.0375L2.1699 57.4305L2.25045 55.1154Z" fill="#B3C3C6"/>
<path d="M45.818 156.684C45.5738 156.489 41.4846 148.603 38.7746 152.363C38.7746 152.363 34.7098 138.581 29.1557 139.228C23.5894 139.875 28.3012 150.104 28.3012 150.104C28.3012 150.104 23.5406 148.151 24.6392 153.315C24.6392 153.315 18.5724 152.216 19.024 156.574L45.818 156.684Z" fill="#B1E5D5"/>
<path d="M152.697 94.3805L152.709 95.6668V149.518H52V95.7235L52.0121 94.3798C52.261 66.785 74.7119 44.5 102.355 44.5C129.997 44.5 152.436 66.7845 152.697 94.3805Z" fill="#DEEDD6" stroke="url(#paint0_linear_2640_31451)" stroke-width="3"/>
<path d="M85.4372 65.6078C85.4372 70.3074 81.6287 74.1159 76.929 74.1159C72.2294 74.1159 68.4209 70.3074 68.4209 65.6078C68.4209 60.9081 72.2294 57.0996 76.929 57.0996C81.6287 57.0996 85.4372 60.9081 85.4372 65.6078Z" fill="white" fill-opacity="0.46"/>
<path d="M143.761 145.525C135.583 151.14 126.196 154.827 116.43 156.645H91.858C76.6239 153.52 65.5889 145.501 65.5889 145.501C65.7109 145.378 65.8208 145.232 65.9673 145.085C70.2275 140.386 77.2464 134.136 82.1291 130.327C87.1583 126.433 93.042 123.431 99.3651 122.723C106.25 121.966 113.208 124.004 119.397 127.154C128.283 131.682 135.851 138.384 143.273 145.073C143.432 145.232 143.603 145.378 143.761 145.525Z" fill="#003E26"/>
<path d="M125.67 94.5847C124.913 96.5988 123.644 98.4909 121.813 99.6261C118.761 101.518 114.867 101.018 111.303 100.566C107.738 100.114 103.747 99.8702 100.951 102.116C101.635 97.5754 102.44 92.7659 105.431 89.2747C108.349 85.869 112.865 84.3066 117.272 83.4765C121.678 82.6586 126.219 82.4267 130.479 81.0107C128.661 82.6342 127.794 85.0634 127.281 87.4437C126.744 89.8485 126.512 92.302 125.67 94.5847Z" fill="#00B000"/>
<path d="M111.693 95.6727C108.324 97.1253 105.114 98.9075 102.099 100.995C107.14 94.1347 117.809 93.6342 123.131 86.9814C122.411 89.3496 120.531 91.2294 118.431 92.5356C116.32 93.8539 113.964 94.6961 111.693 95.6727Z" fill="#46C333"/>
<path d="M110.278 90.5576C108.288 93.353 106.298 96.1483 104.309 98.9559C107.238 97.0516 109.033 93.8168 110.278 90.5576Z" fill="#46C333"/>
<path d="M115.979 87.6895C114.93 90.3017 113.392 92.7064 111.463 94.7572C112.293 94.1468 112.342 94.9037 113.074 94.1835C113.392 93.8661 114.478 92.1693 114.759 91.8153C115.65 90.6435 116.211 89.1543 115.979 87.6895Z" fill="#46C333"/>
<path d="M113.074 94.1826C112.94 94.1704 112.769 94.2315 112.708 94.3657C112.573 94.6221 112.952 94.8296 113.245 94.8662C114.783 95.0615 116.333 95.2568 117.871 95.0493C119.409 94.8418 120.935 94.1826 121.887 92.9619C118.603 93.9873 116.211 94.3901 113.074 94.1826Z" fill="#46C333"/>
<path d="M119.043 97.1855C115.296 97.5273 111.5 97.3442 107.801 96.6484C107.764 97.4053 108.582 97.8935 109.315 98.1011C112.488 99.0288 115.87 98.1133 119.043 97.1855Z" fill="#46C333"/>
<path d="M100.074 89.9719C97.8404 85.7362 93.3361 83.014 88.6609 82.0131C83.9735 81.0121 79.0907 81.5614 74.4033 82.5502C76.6494 83.2582 78.2607 85.2967 79.1518 87.4695C80.0429 89.6545 80.3236 92.0227 80.7997 94.3298C81.2757 96.6369 81.996 98.9806 83.5584 100.751C85.7679 103.253 89.3567 104.156 92.6769 103.912C96.0094 103.656 99.1587 102.398 102.247 101.141C102.076 97.3204 101.869 93.3532 100.074 89.9719Z" fill="#00B000"/>
<path d="M90.7357 92.5233C88.685 89.9843 87.0004 86.7739 83.9121 85.7119C86.8662 88.3486 88.685 91.9862 91.0897 95.1234C93.5067 98.2605 96.9856 101.08 100.941 100.848C97.2419 98.4314 93.4945 95.9535 90.7357 92.5233Z" fill="#46C333"/>
<path d="M94.1297 88.7627C93.9466 90.4839 93.7635 92.2294 93.9588 93.9506C94.1541 95.6718 94.7401 97.4051 95.9242 98.6624C95.8631 97.4662 95.6312 96.3065 95.3993 95.1347C94.972 93.0107 94.557 90.8867 94.1297 88.7627Z" fill="#46C333"/>
<path d="M89.4902 92.9628C89.6977 93.4144 90.4668 93.1581 90.6132 92.682C90.7597 92.206 89.6855 86.1025 88.8311 85.5654C89.0508 88.0312 89.2705 90.497 89.4902 92.9628Z" fill="#46C333"/>
<path d="M90.0765 93.8291C90.3329 93.7925 90.6259 93.7314 90.7479 93.4995C90.8944 93.2431 90.7357 92.9014 90.4916 92.7427C90.2474 92.584 89.9423 92.5596 89.6493 92.5352C87.6596 92.3887 85.6577 92.2422 83.668 92.0957C85.4746 93.4873 87.8305 94.1221 90.0765 93.8291Z" fill="#46C333"/>
<path d="M86.0225 96.6602C88.7202 98.2226 92.0526 98.6743 95.0677 97.8808C94.9701 97.6001 94.8846 97.3071 94.787 97.0264C91.8696 96.9043 88.9521 96.7822 86.0225 96.6602Z" fill="#46C333"/>
<path d="M104.309 127.02C105.908 126.47 106.213 124.383 106.249 122.686C106.323 118.511 106.408 114.312 105.859 110.174C105.309 106.036 104.113 101.91 101.831 98.4189C100.878 99.2856 100.512 100.653 100.537 101.935C100.561 103.216 100.927 104.474 101.232 105.731C102.758 112.164 102.453 119.024 100.354 125.298C101.44 126.36 102.868 127.508 104.309 127.02Z" fill="#46C333"/>
<path d="M113.428 151.958C112.854 153.838 111.926 155.425 110.73 156.646H105.579C105.371 156.658 105.127 156.682 104.895 156.682C104.663 156.682 104.431 156.658 104.199 156.646H98.4377C98.3522 156.573 98.279 156.499 98.1935 156.426C96.2404 154.607 94.8611 152.19 93.9333 149.664C93.384 148.174 93.0057 146.636 92.7737 145.086C91.553 137.176 94.2385 128.668 100 123.077C101.074 122.039 102.307 120.99 102.576 119.513C102.686 118.939 102.649 118.329 102.881 117.792C103.113 117.303 103.723 116.949 104.175 117.145C104.211 117.181 104.26 117.193 104.297 117.23C104.712 117.547 104.614 118.182 104.651 118.683C104.761 119.757 105.615 120.575 106.372 121.344C111.829 127.032 113.574 135.308 114.062 143.182C114.099 143.804 114.136 144.439 114.148 145.074C114.221 147.417 114.087 149.761 113.428 151.958Z" fill="#FFC56E"/>
<path d="M112.841 145.098C112.817 144.597 112.805 144.109 112.768 143.633C112.268 135.369 110.18 129.412 106.347 125.445L106.225 125.323C105.652 124.737 105.078 124.126 105.005 123.37C104.98 123.284 104.98 123.186 104.98 123.101C104.968 122.723 104.944 122.295 104.602 122.027C104.419 121.868 104.175 121.807 103.906 121.88C103.564 121.954 103.247 122.222 103.088 122.564C102.942 122.881 102.905 123.223 102.893 123.541C102.881 123.724 102.856 123.882 102.82 124.029C102.624 125.066 101.806 125.848 101.013 126.617C100.928 126.69 100.83 126.775 100.757 126.849C97.9247 129.607 95.9472 133.196 95.0195 137.237C94.4336 139.885 94.3237 142.534 94.7021 145.086C94.8852 146.44 95.2148 147.771 95.6909 149.053C96.7406 151.909 98.3153 154.155 100.268 155.547C100.915 156.011 101.587 156.389 102.283 156.633H104.199C102.966 156.511 101.709 156.011 100.537 155.168C98.6571 153.826 97.1435 151.665 96.1181 148.906C95.6665 147.673 95.3491 146.379 95.166 145.073C94.2138 138.64 96.4111 131.695 101.086 127.154C101.16 127.08 101.245 127.007 101.318 126.922C102.173 126.104 103.052 125.262 103.271 124.09C103.308 123.907 103.32 123.736 103.345 123.577C103.381 123.272 103.393 122.991 103.528 122.735C103.613 122.515 103.833 122.344 104.028 122.308C104.077 122.295 104.114 122.295 104.15 122.295C104.223 122.295 104.272 122.308 104.333 122.369C104.516 122.515 104.529 122.796 104.529 123.101C104.529 123.211 104.541 123.296 104.541 123.406C104.626 124.322 105.31 124.993 105.896 125.628L106.018 125.75C109.753 129.644 111.816 135.491 112.317 143.657C112.353 144.121 112.365 144.609 112.39 145.086C112.439 147.002 112.353 148.967 111.804 150.823C110.986 153.545 109.192 155.559 106.909 156.352C106.482 156.499 106.03 156.584 105.591 156.633H107.409C109.668 155.718 111.413 153.679 112.243 150.945C112.817 149.041 112.915 147.039 112.841 145.098Z" fill="#FF6E00"/>
<path d="M98.9373 151.616C99.218 152.153 99.5232 152.703 100.024 153.057C100.512 153.411 101.232 153.533 101.72 153.179C102.538 152.593 102.221 151.323 101.842 150.396C100.634 147.332 99.8284 144.109 99.4378 140.838C99.2424 139.178 99.1448 137.505 99.157 135.845C99.1692 134.771 99.7918 132.293 99.1692 131.463C95.4217 137.09 95.971 145.806 98.9373 151.616Z" fill="#FAECD0"/>
<path d="M113.427 151.958C112.853 153.838 111.926 155.425 110.729 156.646H109.155C109.167 156.646 109.167 156.634 109.191 156.634C110.046 156.109 110.705 155.315 111.242 154.473C112.817 151.971 113.427 148.968 113.476 146.014C113.476 145.708 113.476 145.403 113.451 145.098C113.403 142.474 112.939 139.861 112.45 137.249C111.913 134.319 111.34 131.365 110.253 128.57C109.179 125.799 107.555 123.15 105.224 121.295C104.882 121.002 104.504 120.746 104.235 120.367C103.698 119.635 103.649 118.133 104.15 117.169C104.186 117.206 104.235 117.218 104.272 117.254C104.687 117.572 104.589 118.207 104.626 118.707C104.736 119.781 105.59 120.599 106.347 121.368C111.803 127.056 113.549 135.333 114.037 143.206C114.074 143.829 114.111 144.463 114.123 145.098C114.22 147.417 114.086 149.761 113.427 151.958Z" fill="#FFD39F"/>
<path d="M163.549 145.098H41.1387V156.645H163.549V145.098Z" fill="#A0A4A6"/>
<path d="M154.182 157.177C154.426 156.982 158.515 149.096 161.225 152.856C161.225 152.856 165.29 139.074 170.844 139.721C176.41 140.368 171.698 150.598 171.698 150.598C171.698 150.598 176.459 148.644 175.36 153.808C175.36 153.808 181.427 152.709 180.976 157.067L154.182 157.177Z" fill="#B1E5D5"/>
<defs>
<linearGradient id="paint0_linear_2640_31451" x1="130.499" y1="50.4005" x2="67.1019" y2="146.36" gradientUnits="userSpaceOnUse">
<stop stop-color="white"/>
<stop offset="1" stop-color="white" stop-opacity="0"/>
</linearGradient>
</defs>
</svg>
