<svg width="24" height="25" viewBox="0 0 24 25" fill="none" xmlns="http://www.w3.org/2000/svg">
<mask id="mask0_336_4074" style="mask-type:alpha" maskUnits="userSpaceOnUse" x="0" y="0" width="24" height="25">
<rect y="0.504883" width="24" height="24" fill="#D9D9D9"/>
</mask>
<g mask="url(#mask0_336_4074)">
<path d="M13.5052 9.53322L9.36773 5.39212C8.16314 4.18648 6.18311 4.21276 4.94594 5.45147C3.7083 6.69018 3.6816 8.67147 4.88663 9.87711L8.47866 13.4727M16.5215 12.5371L20.1135 16.1323C21.3181 17.3384 21.2918 19.3196 20.0546 20.5584C18.8166 21.7971 16.837 21.8233 15.6319 20.6173L11.4944 16.4761" stroke="#003E26" stroke-width="1.5" stroke-linecap="round" stroke-linejoin="round"/>
<path d="M13.4463 13.9593C14.6835 12.7206 14.7102 10.7388 13.5052 9.5332M11.4948 11.9911C10.2572 13.2298 10.2309 15.2116 11.4355 16.4172" stroke="#003E26" stroke-width="1.5" stroke-linecap="round" stroke-linejoin="round"/>
</g>
</svg>
