<svg width="19" height="23" viewBox="0 0 19 23" fill="none" xmlns="http://www.w3.org/2000/svg">
<path d="M15.338 12.1047C15.3599 10.4209 16.2719 8.8276 17.7187 7.94566C16.806 6.65317 15.2772 5.8337 13.6867 5.78435C11.9904 5.6078 10.3458 6.79087 9.48134 6.79087C8.60017 6.79087 7.26922 5.80188 5.836 5.83112C3.96787 5.89097 2.2263 6.94412 1.31742 8.56357C-0.636328 11.9176 0.82099 16.8469 2.69251 19.5581C3.62888 20.8857 4.72322 22.3686 6.15514 22.316C7.55636 22.2584 8.07969 21.43 9.77108 21.43C11.4468 21.43 11.9378 22.316 13.3987 22.2826C14.9023 22.2584 15.8496 20.9491 16.7532 19.609C17.4259 18.663 17.9436 17.6175 18.2871 16.5113C16.5201 15.7702 15.3401 14.007 15.338 12.1047Z" fill="#111827"/>
<path d="M12.5785 4.00137C13.3983 3.02552 13.8022 1.77124 13.7044 0.504883C12.4519 0.635322 11.2949 1.22888 10.4641 2.16728C9.65156 3.08415 9.22873 4.31636 9.30866 5.53432C10.5616 5.54711 11.7934 4.96964 12.5785 4.00137Z" fill="#111827"/>
</svg>
