<svg width="13" height="13" viewBox="0 0 13 13" fill="none" xmlns="http://www.w3.org/2000/svg">
<path d="M11.9351 3.32577C11.9918 3.26571 12.0601 3.21786 12.136 3.18516C12.2118 3.15246 12.2935 3.13559 12.3761 3.13559C12.4587 3.13559 12.5404 3.15246 12.6163 3.18516C12.6921 3.21786 12.7605 3.26571 12.8172 3.32577C13.0609 3.57926 13.0609 3.99005 12.8172 4.24355L5.3223 12.0492C5.03896 12.3495 4.69727 12.5887 4.31817 12.7522C3.93907 12.9157 3.53057 13 3.11772 13C2.70486 13 2.29636 12.9157 1.91727 12.7522C1.53817 12.5887 1.19647 12.3495 0.913133 12.0492C-0.304378 10.7817 -0.304378 8.72584 0.913133 7.45772L7.52591 0.570486C7.69593 0.39033 7.90096 0.2468 8.12843 0.148701C8.35589 0.0506014 8.60101 0 8.84873 0C9.09645 0 9.34156 0.0506014 9.56903 0.148701C9.7965 0.2468 10.0015 0.39033 10.1715 0.570486C10.9022 1.33097 10.9022 2.56464 10.1715 3.32577L4.43956 9.29327C4.38288 9.35323 4.31455 9.40099 4.23877 9.43363C4.16299 9.46627 4.08135 9.48311 3.99884 9.48311C3.91633 9.48311 3.83468 9.46627 3.7589 9.43363C3.68312 9.40099 3.6148 9.35323 3.55812 9.29327C3.44091 9.16923 3.3756 9.00504 3.3756 8.83438C3.3756 8.66373 3.44091 8.49954 3.55812 8.37549L9.2901 2.40669C9.4075 2.28261 9.47292 2.11829 9.47292 1.94748C9.47292 1.77667 9.4075 1.61234 9.2901 1.48826C9.23341 1.42821 9.16505 1.38036 9.08921 1.34766C9.01337 1.31495 8.93165 1.29809 8.84905 1.29809C8.76646 1.29809 8.68474 1.31495 8.6089 1.34766C8.53306 1.38036 8.4647 1.42821 8.40801 1.48826L1.79393 8.3768C1.06394 9.13728 1.06394 10.3709 1.79393 11.1314C1.96394 11.3116 2.16897 11.4551 2.39644 11.5532C2.62391 11.6513 2.86902 11.7019 3.11674 11.7019C3.36447 11.7019 3.60958 11.6513 3.83705 11.5532C4.06451 11.4551 4.26954 11.3116 4.43956 11.1314L11.9351 3.32577Z" fill="#003E26"/>
</svg>
