<svg width="15" height="17" viewBox="0 0 15 17" fill="none" xmlns="http://www.w3.org/2000/svg">
<g clip-path="url(#clip0_2912_905)">
<path d="M15 12.5568C14.0618 12.5568 13.9533 11.446 12.5056 11.446C11.0515 11.446 10.9378 12.5568 10.0028 12.5568C9.0755 12.5568 8.94964 11.446 7.5 11.446C6.06556 11.446 5.91904 12.5568 5.00558 12.5568C4.06313 12.5568 3.96087 11.446 2.50279 11.446C1.04474 11.446 0.940748 12.5568 0 12.5568V9.77981C0 8.85993 0.719866 8.11361 1.60714 8.11361H2.14286V4.66049H4.28571V8.11361H6.42857V4.66049H8.57143V8.11361H10.7143V4.66049H12.8571V8.11361H13.3929C14.2801 8.11361 15 8.85993 15 9.77981V12.5568ZM15 17H0V13.6676C1.45165 13.6676 1.56586 12.5568 2.50279 12.5568C3.43865 12.5568 3.54921 13.6676 5.00558 13.6676C6.44006 13.6676 6.58651 12.5568 7.5 12.5568C8.44246 12.5568 8.54468 13.6676 10.0028 13.6676C11.4545 13.6676 11.5686 12.5568 12.5056 12.5568C13.4259 12.5568 13.552 13.6676 15 13.6676V17ZM3.21429 4.10509C2.61998 4.10509 2.14286 3.61044 2.14286 2.9943C2.14286 1.91821 3.21429 2.19591 3.21429 0.772705C3.61607 0.772705 4.28571 1.79672 4.28571 2.7166C4.28571 3.63647 3.80859 4.10509 3.21429 4.10509ZM7.5 4.10509C6.90569 4.10509 6.42857 3.61044 6.42857 2.9943C6.42857 1.91821 7.5 2.19591 7.5 0.772705C7.90179 0.772705 8.57143 1.79672 8.57143 2.7166C8.57143 3.63647 8.09431 4.10509 7.5 4.10509ZM11.7857 4.10509C11.1914 4.10509 10.7143 3.61044 10.7143 2.9943C10.7143 1.91821 11.7857 2.19591 11.7857 0.772705C12.1875 0.772705 12.8571 1.79672 12.8571 2.7166C12.8571 3.63647 12.38 4.10509 11.7857 4.10509Z" fill="#003E26"/>
</g>
<defs>
<clipPath id="clip0_2912_905">
<rect width="15" height="17" fill="white"/>
</clipPath>
</defs>
</svg>
