<svg width="24" height="24" viewBox="0 0 24 24" fill="none" xmlns="http://www.w3.org/2000/svg">
<path d="M16.75 5.5H16V4.75C16 4.3 15.7 4 15.25 4C14.8 4 14.5 4.3 14.5 4.75V5.5H8.5V4.75C8.5 4.3 8.2 4 7.75 4C7.3 4 7 4.3 7 4.75V5.5H6.25C4.975 5.5 4 6.475 4 7.75V8.5H19V7.75C19 6.475 18.025 5.5 16.75 5.5ZM4 16.75C4 18.025 4.975 19 6.25 19H16.75C18.025 19 19 18.025 19 16.75V10H4V16.75ZM15.25 11.5C15.7 11.5 16 11.8 16 12.25C16 12.7 15.7 13 15.25 13C14.8 13 14.5 12.7 14.5 12.25C14.5 11.8 14.8 11.5 15.25 11.5ZM15.25 14.5C15.7 14.5 16 14.8 16 15.25C16 15.7 15.7 16 15.25 16C14.8 16 14.5 15.7 14.5 15.25C14.5 14.8 14.8 14.5 15.25 14.5ZM11.5 11.5C11.95 11.5 12.25 11.8 12.25 12.25C12.25 12.7 11.95 13 11.5 13C11.05 13 10.75 12.7 10.75 12.25C10.75 11.8 11.05 11.5 11.5 11.5ZM11.5 14.5C11.95 14.5 12.25 14.8 12.25 15.25C12.25 15.7 11.95 16 11.5 16C11.05 16 10.75 15.7 10.75 15.25C10.75 14.8 11.05 14.5 11.5 14.5ZM7.75 11.5C8.2 11.5 8.5 11.8 8.5 12.25C8.5 12.7 8.2 13 7.75 13C7.3 13 7 12.7 7 12.25C7 11.8 7.3 11.5 7.75 11.5ZM7.75 14.5C8.2 14.5 8.5 14.8 8.5 15.25C8.5 15.7 8.2 16 7.75 16C7.3 16 7 15.7 7 15.25C7 14.8 7.3 14.5 7.75 14.5Z" fill="#003E26"/>
</svg>
