<svg width="12" height="17" viewBox="0 0 12 17" fill="none" xmlns="http://www.w3.org/2000/svg">
<path d="M2.02563 0.372993L2.94794 0.0805893C3.81281 -0.193114 4.73683 0.249741 5.10712 1.11505L5.84428 2.83887C6.16486 3.58943 5.98657 4.47259 5.4037 5.0217L3.77938 6.55002C3.87967 7.46463 4.18996 8.36479 4.7094 9.2505C5.20267 10.1074 5.86431 10.8575 6.65515 11.4563L8.60604 10.8103C9.34491 10.5663 10.1506 10.8477 10.6032 11.5081L11.6601 13.0466C12.1873 13.8151 12.0921 14.8742 11.4381 15.5253L10.7378 16.2231C10.0401 16.9176 9.04319 17.17 8.12175 16.8844C5.94456 16.2112 3.94481 14.2129 2.11906 10.8893C0.290745 7.56068 -0.354696 4.73524 0.1836 2.41642C0.40989 1.44061 1.11019 0.662846 2.02563 0.372993Z" fill="#003E26"/>
</svg>
