<svg width="36" height="36" viewBox="0 0 36 36" fill="none" xmlns="http://www.w3.org/2000/svg">
<circle cx="18" cy="18" r="17.85" fill="url(#paint0_linear_954_12585)" stroke="url(#paint1_linear_954_12585)" stroke-width="0.3"/>
<ellipse cx="18" cy="18" rx="14.3516" ry="14.3516" fill="url(#paint2_linear_954_12585)"/>
<path opacity="0.32" fill-rule="evenodd" clip-rule="evenodd" d="M16.9667 31.3188C24.8928 31.3188 31.3183 24.8933 31.3183 16.9672C31.3183 13.2667 29.9177 9.89327 27.6178 7.34814C30.5246 9.97451 32.3513 13.774 32.3513 18.0001C32.3513 25.9263 25.9259 32.3517 17.9997 32.3517C13.7741 32.3517 9.97497 30.5255 7.34863 27.6192C9.89364 29.9186 13.2666 31.3188 16.9667 31.3188Z" fill="#FFE26F"/>
<path opacity="0.61" fill-rule="evenodd" clip-rule="evenodd" d="M28.6524 8.38239C26.1072 6.0823 22.7337 4.68166 19.0331 4.68166C11.1069 4.68166 4.68149 11.1071 4.68149 19.0333C4.68149 22.7331 6.08154 26.1059 8.38074 28.6509C5.47459 26.0246 3.64844 22.2256 3.64844 18C3.64844 10.0739 10.0739 3.64844 18 3.64844C22.2264 3.64844 26.026 5.47528 28.6524 8.38239Z" fill="#F99335"/>
<path d="M20.593 11.6183C20.2179 12.7846 18.7176 12.6131 18.7176 11.3439C18.7517 11.6869 19.0586 11.9613 19.3996 11.927C19.7405 11.8584 19.9792 11.5154 19.9451 11.1724C19.8428 10.212 18.6153 10.3492 18.172 10.9323C17.5582 11.6869 17.7969 12.6131 18.1379 13.402C18.4107 13.9851 18.6835 14.5339 18.9222 15.0827H17.0126C17.0808 14.8426 17.0808 14.6025 17.0808 14.3967C17.0808 13.6764 16.9103 12.9904 16.8762 12.3044C16.8421 11.6183 16.9444 10.8637 17.3536 10.3149C17.9333 9.56029 19.1609 9.35448 19.9451 9.9376C20.4907 10.2806 20.7976 11.0009 20.593 11.6183Z" fill="#FFF4C7"/>
<path d="M19.5591 19.9535C19.5591 22.8377 17.5558 25.123 15.1717 25.123C12.7875 25.123 10.7842 22.8377 10.7842 19.9535C10.7842 17.0693 12.7875 14.7839 15.1717 14.7839C17.5558 14.7839 19.5591 17.0693 19.5591 19.9535Z" fill="#FFF4C7" stroke="#FFB618" stroke-width="0.5"/>
<path d="M25.5264 19.9535C25.5264 22.8377 23.523 25.123 21.1389 25.123C18.7548 25.123 16.7515 22.8377 16.7515 19.9535C16.7515 17.0693 18.7548 14.7839 21.1389 14.7839C23.523 14.7839 25.5264 17.0693 25.5264 19.9535Z" fill="#FFF4C7" stroke="#FFB618" stroke-width="0.5"/>
<path d="M19.15 19.9535C19.15 21.4096 18.8084 22.7205 18.2748 23.6587C17.7363 24.6057 17.0361 25.123 16.3311 25.123C15.6083 25.123 14.9084 24.6046 14.375 23.6595C13.8458 22.7216 13.5122 21.4107 13.5122 19.9535C13.5122 18.4974 13.8538 17.1865 14.3874 16.2482C14.9259 15.3013 15.6262 14.7839 16.3311 14.7839C17.0361 14.7839 17.7363 15.3013 18.2748 16.2482C18.8084 17.1865 19.15 18.4974 19.15 19.9535Z" fill="#FFF4C7" stroke="#FFB618" stroke-width="0.5"/>
<path d="M22.7985 19.9535C22.7985 21.4096 22.4569 22.7205 21.9233 23.6587C21.3848 24.6057 20.6845 25.123 19.9796 25.123C19.2746 25.123 18.5744 24.6057 18.0359 23.6587C17.5023 22.7205 17.1606 21.4096 17.1606 19.9535C17.1606 18.4974 17.5023 17.1865 18.0359 16.2482C18.5744 15.3013 19.2746 14.7839 19.9796 14.7839C20.6845 14.7839 21.3848 15.3013 21.9233 16.2482C22.4569 17.1865 22.7985 18.4974 22.7985 19.9535Z" fill="#FFF4C7" stroke="#FFB618" stroke-width="0.5"/>
<path d="M20.1048 19.9535C20.1048 21.4214 19.8611 22.7427 19.4754 23.6879C19.2823 24.1611 19.0586 24.5278 18.8226 24.7723C18.5874 25.016 18.3563 25.123 18.1383 25.123C17.9204 25.123 17.6892 25.016 17.454 24.7723C17.2181 24.5278 16.9943 24.1611 16.8012 23.6879C16.4155 22.7427 16.1719 21.4214 16.1719 19.9535C16.1719 18.4856 16.4155 17.1642 16.8012 16.2191C16.9943 15.7459 17.2181 15.3792 17.454 15.1347C17.6892 14.891 17.9204 14.7839 18.1383 14.7839C18.3563 14.7839 18.5874 14.891 18.8226 15.1347C19.0586 15.3792 19.2823 15.7459 19.4754 16.2191C19.8611 17.1642 20.1048 18.4856 20.1048 19.9535Z" fill="#FFF4C7" stroke="#FFB618" stroke-width="0.5"/>
<defs>
<linearGradient id="paint0_linear_954_12585" x1="6.68223" y1="3.98042" x2="28.9006" y2="31.1272" gradientUnits="userSpaceOnUse">
<stop stop-color="#FFC700"/>
<stop offset="1" stop-color="#FFA800"/>
</linearGradient>
<linearGradient id="paint1_linear_954_12585" x1="8.42664" y1="2.94862" x2="29.1194" y2="30.6584" gradientUnits="userSpaceOnUse">
<stop stop-color="#FB9B21" stop-opacity="0.75"/>
<stop offset="1" stop-color="#F08906"/>
</linearGradient>
<linearGradient id="paint2_linear_954_12585" x1="11.2067" y1="9.63596" x2="26.0728" y2="28.8649" gradientUnits="userSpaceOnUse">
<stop stop-color="#FFA800"/>
<stop offset="0.938927" stop-color="#FFC838"/>
</linearGradient>
</defs>
</svg>
