<svg width="24" height="24" viewBox="0 0 24 24" fill="none" xmlns="http://www.w3.org/2000/svg">
<mask id="mask0_852_28206" style="mask-type:alpha" maskUnits="userSpaceOnUse" x="0" y="0" width="24" height="24">
<rect width="24" height="24" fill="#D9D9D9"/>
</mask>
<g mask="url(#mask0_852_28206)">
<path d="M14 10C14 10.55 13.55 11 13 11H4C3.45 11 3 10.55 3 10C3 9.45 3.45 9 4 9H13C13.55 9 14 9.45 14 10ZM3 6C3 6.55 3.45 7 4 7H13C13.55 7 14 6.55 14 6C14 5.45 13.55 5 13 5H4C3.45 5 3 5.45 3 6ZM10 14C10 13.45 9.55 13 9 13H4C3.45 13 3 13.45 3 14C3 14.55 3.45 15 4 15H9C9.55 15 10 14.55 10 14ZM18.01 11.87L18.72 11.16C18.8125 11.0673 18.9224 10.9937 19.0434 10.9436C19.1643 10.8934 19.294 10.8676 19.425 10.8676C19.556 10.8676 19.6856 10.8934 19.8066 10.9436C19.9276 10.9937 20.0375 11.0673 20.13 11.16L20.84 11.87C21.23 12.26 21.23 12.89 20.84 13.28L20.13 13.99L18.01 11.87ZM17.3 12.58L12.14 17.74C12.05 17.83 12 17.95 12 18.09V19.5C12 19.78 12.22 20 12.5 20H13.91C14.04 20 14.17 19.95 14.26 19.85L19.42 14.69L17.3 12.58Z" fill="#FF6E00"/>
</g>
</svg>
