<svg width="27" height="26" viewBox="0 0 27 26" fill="none" xmlns="http://www.w3.org/2000/svg">
<mask id="mask0_336_3369" style="mask-type:alpha" maskUnits="userSpaceOnUse" x="0" y="2" width="24" height="24">
<rect y="2" width="24" height="24" fill="#D9D9D9"/>
</mask>
<g mask="url(#mask0_336_3369)">
<path d="M14.6033 8.88461C14.6033 9.64966 14.3012 10.3834 13.7633 10.9243C13.2254 11.4653 12.4959 11.7692 11.7353 11.7692C10.9746 11.7692 10.2452 11.4653 9.70729 10.9243C9.16943 10.3834 8.86726 9.64966 8.86726 8.88461C8.86726 8.11957 9.16943 7.38585 9.70729 6.84488C10.2452 6.30391 10.9746 6 11.7353 6C12.4959 6 13.2254 6.30391 13.7633 6.84488C14.3012 7.38585 14.6033 8.11957 14.6033 8.88461V8.88461ZM6 19.7446C6.02458 18.231 6.63964 16.7878 7.71254 15.7262C8.78544 14.6646 10.2302 14.0696 11.7353 14.0696C13.2404 14.0696 14.6851 14.6646 15.758 15.7262C16.831 16.7878 17.446 18.231 17.4706 19.7446C15.6713 20.5744 13.7147 21.0027 11.7353 21C9.68867 21 7.74606 20.5508 6 19.7446Z" stroke="#003E26" stroke-width="1.5" stroke-linecap="round" stroke-linejoin="round"/>
</g>
<path d="M18 9L24 3M18 3L24 9" stroke="#003E26" stroke-width="1.5" stroke-linecap="round" stroke-linejoin="round"/>
</svg>
