<svg width="17" height="16" viewBox="0 0 17 16" fill="none" xmlns="http://www.w3.org/2000/svg">
<path d="M8.5 0C6.945 0 5.67004 1.08125 5.67004 2.4H2.72033C2.67796 2.39375 2.63558 2.39062 2.5932 2.39062C2.5582 2.39219 2.52504 2.39531 2.49187 2.4H0.717622C0.463369 2.39688 0.225696 2.51094 0.0967272 2.69688C-0.0322424 2.88438 -0.0322424 3.11562 0.0967272 3.30312C0.225696 3.48906 0.463369 3.60312 0.717622 3.6H1.89677V13.8C1.89677 15.0078 3.06671 16 4.4909 16H12.5091C13.9333 16 15.1032 15.0078 15.1032 13.8V3.6H16.2824C16.5366 3.60312 16.7743 3.48906 16.9033 3.30312C17.0322 3.11562 17.0322 2.88438 16.9033 2.69688C16.7743 2.51094 16.5366 2.39688 16.2824 2.4H14.5118C14.4363 2.38906 14.3589 2.38906 14.2834 2.4H11.33C11.33 1.08125 10.055 0 8.5 0ZM8.5 1.2C9.2904 1.2 9.91498 1.72969 9.91498 2.4H7.08502C7.08502 1.72969 7.7096 1.2 8.5 1.2ZM3.31175 3.6H13.6883V13.8C13.6883 14.3594 13.1687 14.8 12.5091 14.8H4.4909C3.83131 14.8 3.31175 14.3594 3.31175 13.8V3.6ZM6.83814 5.59219C6.44755 5.59688 6.13618 5.86875 6.1417 6.2V12.2C6.13802 12.4156 6.27252 12.6172 6.49176 12.7266C6.71285 12.8359 6.98553 12.8359 7.20662 12.7266C7.42587 12.6172 7.56037 12.4156 7.55668 12.2V6.2C7.55852 6.0375 7.48483 5.88125 7.34849 5.76719C7.21399 5.65156 7.02975 5.58906 6.83814 5.59219ZM10.1398 5.59219C9.74916 5.59688 9.43779 5.86875 9.44332 6.2V12.2C9.43963 12.4156 9.57413 12.6172 9.79338 12.7266C10.0145 12.8359 10.2871 12.8359 10.5082 12.7266C10.7275 12.6172 10.862 12.4156 10.8583 12.2V6.2C10.8601 6.0375 10.7864 5.88125 10.6501 5.76719C10.5156 5.65156 10.3314 5.58906 10.1398 5.59219Z" fill="#595959"/>
</svg>
