<svg width="16" height="16" viewBox="0 0 16 16" fill="none" xmlns="http://www.w3.org/2000/svg">
<path d="M7.26201 2.47607H2.39156C2.02249 2.47607 1.66855 2.62268 1.40758 2.88365C1.14661 3.14462 1 3.49857 1 3.86763V13.6085C1 13.9776 1.14661 14.3316 1.40758 14.5925C1.66855 14.8535 2.02249 15.0001 2.39156 15.0001H12.1325C12.5015 15.0001 12.8555 14.8535 13.1165 14.5925C13.3774 14.3316 13.524 13.9776 13.524 13.6085V8.73809" stroke="#595959" stroke-width="1.5" stroke-linecap="round" stroke-linejoin="round"/>
<path d="M12.4805 1.4323C12.7573 1.1555 13.1327 1 13.5242 1C13.9156 1 14.291 1.1555 14.5678 1.4323C14.8446 1.7091 15.0001 2.08452 15.0001 2.47597C15.0001 2.86742 14.8446 3.24284 14.5678 3.51964L7.95792 10.1295L5.1748 10.8253L5.87058 8.04221L12.4805 1.4323Z" stroke="#595959" stroke-width="1.5" stroke-linecap="round" stroke-linejoin="round"/>
</svg>
