<svg width="16" height="12" viewBox="0 0 16 12" fill="none" xmlns="http://www.w3.org/2000/svg">
<path d="M16 10.5V1.5C16 0.67 15.3698 0 14.5891 0H1.41093C0.630218 0 0 0.67 0 1.5V10.5C0 11.33 0.630218 12 1.41093 12H14.5891C15.3698 12 16 11.33 16 10.5ZM14.7678 1.39C15.0782 1.72 14.9089 2.06 14.7396 2.23L10.9206 5.95L14.5891 10.01C14.7019 10.15 14.7772 10.37 14.6455 10.52C14.5232 10.68 14.241 10.67 14.1188 10.57L10.0082 6.84L7.9953 8.79L5.99177 6.84L1.88125 10.57C1.75897 10.67 1.47678 10.68 1.3545 10.52C1.22281 10.37 1.29806 10.15 1.41093 10.01L5.07936 5.95L1.26043 2.23C1.09112 2.06 0.921811 1.72 1.23222 1.39C1.54262 1.06 1.86243 1.22 2.12581 1.46L7.9953 6.5L13.8742 1.46C14.1376 1.22 14.4574 1.06 14.7678 1.39Z" fill="#003E26"/>
</svg>
