<svg width="19" height="20" viewBox="0 0 19 20" fill="none" xmlns="http://www.w3.org/2000/svg">
<path d="M10.7499 9C10.7499 8.58579 10.4141 8.25 9.99987 8.25C9.58566 8.25 9.24987 8.58579 9.24987 9H10.7499ZM6.61223 18.1719C6.39168 18.5225 6.49711 18.9855 6.84772 19.2061C7.19833 19.4266 7.66135 19.3212 7.88191 18.9706L6.61223 18.1719ZM3.8613 16.4413L3.22647 16.042L3.22646 16.042L3.8613 16.4413ZM3.16203 16.1474C2.95052 16.5035 3.06777 16.9637 3.42391 17.1752C3.78005 17.3867 4.24022 17.2695 4.45173 16.9133L3.16203 16.1474ZM11.0087 18.5077C10.8231 18.878 10.9729 19.3286 11.3433 19.5142C11.7136 19.6997 12.1642 19.5499 12.3498 19.1796L11.0087 18.5077ZM13.8924 15.2042C14.0052 14.8057 13.7735 14.3911 13.3749 14.2783C12.9764 14.1656 12.5618 14.3972 12.4491 14.7958L13.8924 15.2042ZM13.0535 11.8985C12.9975 12.3089 13.2847 12.687 13.6951 12.7431C14.1055 12.7992 14.4837 12.5119 14.5397 12.1015L13.0535 11.8985ZM16.2883 15.9266C16.1749 16.325 16.406 16.7399 16.8043 16.8533C17.2027 16.9667 17.6176 16.7357 17.731 16.3373L16.2883 15.9266ZM0.325392 13.0364C0.144394 13.409 0.299698 13.8577 0.672274 14.0387C1.04485 14.2197 1.49361 14.0644 1.67461 13.6919L0.325392 13.0364ZM5.62446 1.42105C5.26591 1.62846 5.14339 2.08726 5.3508 2.4458C5.5582 2.80435 6.017 2.92687 6.37554 2.71946L5.62446 1.42105ZM3.71946 5.37554C3.92687 5.017 3.80435 4.5582 3.4458 4.3508C3.08726 4.14339 2.62846 4.26591 2.42105 4.62446L3.71946 5.37554ZM9.24987 9C9.24987 12.3718 8.28322 15.5155 6.61223 18.1719L7.88191 18.9706C9.69896 16.082 10.7499 12.6626 10.7499 9H9.24987ZM14.7499 9C14.7499 6.37665 12.6233 4.25 9.99991 4.25V5.75C11.7948 5.75 13.2499 7.20507 13.2499 9H14.7499ZM5.24991 9C5.24991 11.5964 4.50791 14.0049 3.22647 16.042L4.49614 16.8407C5.92369 14.5714 6.74991 11.8871 6.74991 9H5.24991ZM9.99991 4.25C7.37655 4.25 5.24991 6.37665 5.24991 9H6.74991C6.74991 7.20507 8.20498 5.75 9.99991 5.75V4.25ZM3.22646 16.042C3.20448 16.0769 3.18301 16.1121 3.16203 16.1474L4.45173 16.9133C4.46617 16.889 4.48098 16.8648 4.49614 16.8407L3.22646 16.042ZM12.3498 19.1796C12.9824 17.9168 13.5011 16.587 13.8924 15.2042L12.4491 14.7958C12.0837 16.0868 11.5994 17.3284 11.0087 18.5077L12.3498 19.1796ZM14.5397 12.1015C14.6783 11.0866 14.7499 10.0511 14.7499 9H13.2499C13.2499 9.98296 13.183 10.9506 13.0535 11.8985L14.5397 12.1015ZM18.75 9C18.75 4.16751 14.8325 0.25 10 0.25V1.75C14.0041 1.75 17.25 4.99594 17.25 9H18.75ZM17.731 16.3373C18.3949 14.0049 18.75 11.5433 18.75 9H17.25C17.25 11.403 16.9145 13.7265 16.2883 15.9266L17.731 16.3373ZM1.25 9C1.25 10.4487 0.917517 11.8175 0.325392 13.0364L1.67461 13.6919C2.3638 12.2732 2.75 10.6806 2.75 9H1.25ZM10 0.25C8.40749 0.25 6.91223 0.676117 5.62446 1.42105L6.37554 2.71946C7.44116 2.10304 8.67821 1.75 10 1.75V0.25ZM2.42105 4.62446C1.67612 5.91223 1.25 7.40749 1.25 9H2.75C2.75 7.67821 3.10304 6.44116 3.71946 5.37554L2.42105 4.62446Z" fill="#003E26"/>
</svg>
