<svg width="8" height="12" viewBox="0 0 8 12" fill="none" xmlns="http://www.w3.org/2000/svg">
<path d="M7.99987 10.4H0.799987V0.800123H3.99993V3.20008C4.00057 3.41206 4.08505 3.61517 4.23494 3.76506C4.38483 3.91495 4.58795 3.99944 4.79992 4.00007H7.19988V10.88H7.99987V3.20008C8.00128 3.14751 7.99128 3.09526 7.97057 3.04693C7.94985 2.99859 7.91891 2.95532 7.87987 2.92009L5.07992 0.120134C5.0447 0.0810725 5.00143 0.0501154 4.95309 0.0293984C4.90475 0.00868137 4.85249 -0.00130231 4.79992 0.000136014H0.799987C0.588012 0.000769094 0.3849 0.0852565 0.23501 0.235146C0.0851205 0.385036 0.00063308 0.588148 0 0.800123V10.4C0.00063308 10.6119 0.0851205 10.8151 0.23501 10.9649C0.3849 11.1148 0.588012 11.1993 0.799987 11.2H7.99987V10.4ZM4.79992 0.96012L7.03988 3.20008H4.79992V0.96012Z" fill="#003E26"/>
</svg>
