<svg width="15" height="19" viewBox="0 0 15 19" fill="none" xmlns="http://www.w3.org/2000/svg">
<path d="M14.5485 17.3824H2.00681V1.4563H7.58091V5.43782C7.58201 5.78949 7.72918 6.12645 7.99028 6.37512C8.25138 6.62378 8.60519 6.76395 8.97443 6.765H13.155V18.1787H14.5485V5.43782C14.551 5.35061 14.5336 5.26393 14.4975 5.18374C14.4614 5.10355 14.4075 5.03176 14.3395 4.97331L9.46217 0.328208C9.40083 0.263405 9.32545 0.212047 9.24125 0.177678C9.15704 0.143309 9.06601 0.126746 8.97443 0.129132H2.00681C1.63756 0.130182 1.28375 0.270346 1.02265 0.519012C0.761556 0.767678 0.614384 1.10464 0.613281 1.4563V17.3824C0.614384 17.734 0.761556 18.071 1.02265 18.3197C1.28375 18.5683 1.63756 18.7085 2.00681 18.7096H14.5485V17.3824ZM8.97443 1.72174L12.8763 5.43782H8.97443V1.72174Z" fill="#FF6E00"/>
</svg>
