<svg width="24" height="24" viewBox="0 0 24 24" fill="none" xmlns="http://www.w3.org/2000/svg">
<mask id="mask0_853_33203" style="mask-type:alpha" maskUnits="userSpaceOnUse" x="0" y="0" width="24" height="24">
<rect width="24" height="24" fill="#D9D9D9"/>
</mask>
<g mask="url(#mask0_853_33203)">
<path d="M11.2662 4.35291C11.9676 4.36441 12.6098 4.42667 13.241 4.58153C13.6085 4.67151 13.8219 4.98593 13.748 5.31971C13.6667 5.68593 13.3511 5.88735 12.9616 5.79998C11.6368 5.5023 10.3215 5.53107 9.04496 5.99878C6.51076 6.9274 4.91076 8.71767 4.39962 11.3722C3.76423 14.6718 5.47694 17.8192 8.55165 19.17C11.9928 20.6809 16.1705 19.0805 17.7265 15.6543C18.3907 14.1915 18.5585 12.6759 18.2072 11.1054C18.1726 10.9511 18.1511 10.7978 18.2119 10.6434C18.3115 10.3923 18.5606 10.2244 18.8237 10.2364C19.1011 10.249 19.3448 10.4457 19.4114 10.7292C19.6767 11.8567 19.7239 12.9924 19.5068 14.1319C19.0167 16.7027 17.6269 18.6458 15.36 19.9395C13.7737 20.8446 12.0489 21.1805 10.2429 20.9079C7.02609 20.423 4.78441 18.6468 3.56344 15.637C2.34352 12.6304 3.15505 9.01221 5.49319 6.749C6.89398 5.39296 8.56161 4.61083 10.4966 4.39842C10.7697 4.3686 11.045 4.36546 11.2662 4.35291Z" fill="#8E8E8E"/>
<path d="M20.4962 5.56669C20.028 5.40504 19.5583 5.24913 19.087 5.09741C18.9821 5.06393 18.9318 5.01005 18.8988 4.90489C18.7473 4.42724 18.5879 3.95116 18.4254 3.47717C18.2503 2.96866 17.7182 2.84101 17.3381 3.21873C16.5035 4.04795 15.6736 4.88187 14.8406 5.71213C14.6933 5.85914 14.623 6.02917 14.6267 6.23844C14.633 6.57797 14.6288 6.91803 14.6288 7.25808C14.6283 7.60442 14.622 7.95075 14.6319 8.29709C14.6356 8.43311 14.5921 8.52624 14.4972 8.62041C13.3533 9.75933 12.2125 10.9014 11.0713 12.0429C11.0251 12.089 10.9769 12.134 10.9355 12.1842C10.6429 12.5389 10.8091 13.0642 11.2532 13.1866C11.5232 13.2609 11.7334 13.1562 11.9221 12.9669C13.0707 11.8143 14.2235 10.666 15.3711 9.5124C15.4702 9.41248 15.5661 9.36591 15.7103 9.36748C16.3829 9.37585 17.0566 9.36591 17.7292 9.37429C17.9688 9.3769 18.1549 9.29529 18.3216 9.12735C19.1315 8.31069 19.9473 7.50031 20.7588 6.6847C21.1661 6.27558 21.044 5.75608 20.4962 5.56669ZM19.0723 6.59733C18.6026 7.06975 18.1297 7.54007 17.6605 8.01301C17.5929 8.08102 17.5279 8.12026 17.4251 8.11921C16.9612 8.11241 16.4972 8.11189 16.0332 8.11921C15.9153 8.12078 15.8781 8.09515 15.8802 7.97011C15.8886 7.49979 15.8849 7.02946 15.8823 6.55861C15.8817 6.48223 15.9006 6.42625 15.9578 6.36975C16.4778 5.856 16.9947 5.33859 17.5378 4.79659C17.6437 5.10892 17.7465 5.39562 17.8372 5.68597C17.9137 5.93029 18.0663 6.08515 18.3111 6.16153C18.6015 6.25256 18.8888 6.35458 19.1777 6.45189C19.1693 6.53193 19.1106 6.55861 19.0723 6.59733Z" fill="#8E8E8E"/>
<path d="M11.3559 16.9214C8.8888 16.9335 6.93179 14.8492 7.09221 12.4023C7.2369 10.193 9.06652 8.44511 11.2511 8.42837C11.6594 8.42523 11.9541 8.68786 11.9546 9.05512C11.9551 9.41506 11.6736 9.67455 11.272 9.68344C9.68199 9.72007 8.4369 10.9369 8.33887 12.552C8.24765 14.0451 9.37321 15.4058 10.8899 15.6365C12.665 15.9065 14.2712 14.5379 14.3163 12.7183C14.3242 12.3908 14.4857 12.1575 14.7604 12.0759C15.0309 11.9958 15.304 12.0947 15.4639 12.3296C15.5399 12.441 15.5709 12.5645 15.5724 12.699C15.595 14.7262 14.0112 16.5704 11.9981 16.8665C11.7774 16.8984 11.5562 16.9068 11.3559 16.9214Z" fill="#8E8E8E"/>
</g>
</svg>
