<svg width="28" height="28" viewBox="0 0 28 28" fill="none" xmlns="http://www.w3.org/2000/svg">
<path d="M25.3066 12.1475H24.4055V12.1011H14.3382V16.5754H20.6599C19.7377 19.18 17.2594 21.0498 14.3382 21.0498C10.6318 21.0498 7.6267 18.0447 7.6267 14.3382C7.6267 10.6318 10.6318 7.6267 14.3382 7.6267C16.0491 7.6267 17.6056 8.27213 18.7908 9.3264L21.9547 6.16247C19.9569 4.30058 17.2846 3.15234 14.3382 3.15234C8.16083 3.15234 3.15234 8.16083 3.15234 14.3382C3.15234 20.5156 8.16083 25.5241 14.3382 25.5241C20.5156 25.5241 25.5241 20.5156 25.5241 14.3382C25.5241 13.5882 25.4469 12.8561 25.3066 12.1475Z" fill="#FFC107"/>
<path d="M4.44214 9.13176L8.11726 11.827C9.11169 9.36499 11.52 7.6267 14.3383 7.6267C16.0492 7.6267 17.6057 8.27213 18.7908 9.3264L21.9548 6.16247C19.957 4.30058 17.2847 3.15234 14.3383 3.15234C10.0418 3.15234 6.31578 5.578 4.44214 9.13176Z" fill="#FF3D00"/>
<path d="M14.3384 25.524C17.2277 25.524 19.853 24.4183 21.838 22.6201L18.3759 19.6905C17.2529 20.5412 15.8569 21.0496 14.3384 21.0496C11.4289 21.0496 8.95851 19.1944 8.02785 16.6055L4.38013 19.4159C6.23139 23.0385 9.99097 25.524 14.3384 25.524Z" fill="#4CAF50"/>
<path d="M25.3067 12.1475H24.4057V12.1011H14.3384V16.5754H20.6601C20.2171 17.8266 19.4123 18.9055 18.3742 19.6913C18.3748 19.6907 18.3754 19.6907 18.3759 19.6901L21.838 22.6197C21.593 22.8423 25.5243 19.9312 25.5243 14.3383C25.5243 13.5882 25.4471 12.8561 25.3067 12.1475Z" fill="#1976D2"/>
</svg>
