<svg width="24" height="24" viewBox="0 0 24 24" fill="none" xmlns="http://www.w3.org/2000/svg">
<mask id="mask0_853_32423" style="mask-type:alpha" maskUnits="userSpaceOnUse" x="0" y="0" width="24" height="24">
<rect width="24" height="24" fill="#D9D9D9"/>
</mask>
<g mask="url(#mask0_853_32423)">
<path d="M17.5376 17.8852C18.707 17.9812 19.8834 17.8299 20.9909 17.4409C21.0332 16.9172 20.9271 16.3922 20.6848 15.9266C20.4425 15.461 20.074 15.0738 19.6218 14.8099C19.1697 14.546 18.6524 14.416 18.1299 14.4352C17.6073 14.4543 17.1008 14.6217 16.669 14.918M17.5367 17.8843L17.5376 17.913C17.5376 18.1217 17.5266 18.3276 17.5035 18.5308C15.8284 19.4964 13.9303 20.0031 11.9991 20C9.99593 20 8.11558 19.4657 6.49463 18.5308C6.47089 18.3161 6.45949 18.1003 6.46047 17.8843M17.5376 17.8843C17.534 16.833 17.2328 15.8045 16.669 14.9189M16.669 14.9189C16.1686 14.1303 15.4783 13.4813 14.662 13.0319C13.8457 12.5825 12.9298 12.3472 11.9991 12.3478C11.0684 12.3473 10.1527 12.5827 9.33659 13.0321C8.52048 13.4815 7.83035 14.1305 7.33003 14.9189M7.33003 14.9189C6.89821 14.6229 6.39183 14.4557 5.86943 14.4367C5.34703 14.4178 4.82995 14.5477 4.37797 14.8116C3.92599 15.0755 3.55758 15.4626 3.31532 15.928C3.07307 16.3935 2.96687 16.9183 3.00901 17.4418C4.11572 17.833 5.29241 17.9838 6.46139 17.8843M7.32911 14.9189C6.76567 15.8046 6.46471 16.8331 6.46139 17.8843M14.7683 6.78261C14.7683 7.5206 14.4766 8.22837 13.9572 8.75021C13.4379 9.27205 12.7335 9.56521 11.9991 9.56521C11.2646 9.56521 10.5602 9.27205 10.0409 8.75021C9.52152 8.22837 9.22976 7.5206 9.22976 6.78261C9.22976 6.04461 9.52152 5.33685 10.0409 4.81501C10.5602 4.29317 11.2646 4 11.9991 4C12.7335 4 13.4379 4.29317 13.9572 4.81501C14.4766 5.33685 14.7683 6.04461 14.7683 6.78261V6.78261ZM20.3069 9.56521C20.3069 9.83928 20.2532 10.1107 20.1488 10.3639C20.0444 10.6171 19.8915 10.8471 19.6986 11.0409C19.5057 11.2347 19.2768 11.3884 19.0248 11.4933C18.7728 11.5982 18.5027 11.6522 18.23 11.6522C17.9572 11.6522 17.6871 11.5982 17.4351 11.4933C17.1831 11.3884 16.9542 11.2347 16.7613 11.0409C16.5685 10.8471 16.4155 10.6171 16.3111 10.3639C16.2067 10.1107 16.153 9.83928 16.153 9.56521C16.153 9.01172 16.3718 8.48089 16.7613 8.08951C17.1508 7.69813 17.6791 7.47826 18.23 7.47826C18.7808 7.47826 19.3091 7.69813 19.6986 8.08951C20.0881 8.48089 20.3069 9.01172 20.3069 9.56521V9.56521ZM7.84512 9.56521C7.84512 9.83928 7.79139 10.1107 7.68702 10.3639C7.58264 10.6171 7.42965 10.8471 7.23679 11.0409C7.04392 11.2347 6.81496 11.3884 6.56297 11.4933C6.31098 11.5982 6.0409 11.6522 5.76815 11.6522C5.4954 11.6522 5.22532 11.5982 4.97333 11.4933C4.72134 11.3884 4.49238 11.2347 4.29951 11.0409C4.10665 10.8471 3.95366 10.6171 3.84928 10.3639C3.7449 10.1107 3.69118 9.83928 3.69118 9.56521C3.69118 9.01172 3.91 8.48089 4.29951 8.08951C4.68902 7.69813 5.2173 7.47826 5.76815 7.47826C6.319 7.47826 6.84728 7.69813 7.23679 8.08951C7.62629 8.48089 7.84512 9.01172 7.84512 9.56521V9.56521Z" stroke="white" stroke-width="1.4" stroke-linecap="round" stroke-linejoin="round"/>
</g>
</svg>
