<svg width="24" height="24" viewBox="0 0 24 24" fill="none" xmlns="http://www.w3.org/2000/svg">
<mask id="mask0_787_1737" style="mask-type:alpha" maskUnits="userSpaceOnUse" x="0" y="0" width="24" height="24">
<rect width="24" height="24" fill="#D9D9D9"/>
</mask>
<g mask="url(#mask0_787_1737)">
<path d="M15.7504 7.26923C15.7504 8.13628 15.408 8.96782 14.7984 9.58092C14.1888 10.194 13.3621 10.5385 12.5 10.5385C11.6379 10.5385 10.8112 10.194 10.2016 9.58092C9.59202 8.96782 9.24957 8.13628 9.24957 7.26923C9.24957 6.40217 9.59202 5.57063 10.2016 4.95753C10.8112 4.34444 11.6379 4 12.5 4C13.3621 4 14.1888 4.34444 14.7984 4.95753C15.408 5.57063 15.7504 6.40217 15.7504 7.26923V7.26923ZM6 19.5772C6.02785 17.8618 6.72492 16.2262 7.94088 15.023C9.15684 13.8198 10.7942 13.1455 12.5 13.1455C14.2058 13.1455 15.8432 13.8198 17.0591 15.023C18.2751 16.2262 18.9721 17.8618 19 19.5772C16.9608 20.5177 14.7434 21.003 12.5 21C10.1805 21 7.97886 20.4909 6 19.5772Z" stroke="#003E26" stroke-width="1.5" stroke-linecap="round" stroke-linejoin="round"/>
</g>
</svg>
