<svg width="17" height="17" viewBox="0 0 17 17" fill="none" xmlns="http://www.w3.org/2000/svg">
<path d="M8.5 0C3.8131 0 0 3.05065 0 6.8C0 9.2718 1.61245 11.4886 4.25 12.6939V17L8.789 13.5966C13.3425 13.4742 17 10.472 17 6.8C17 3.05065 13.1869 0 8.5 0ZM6.375 7.65C6.03685 7.65 5.71255 7.51567 5.47344 7.27656C5.23433 7.03745 5.1 6.71315 5.1 6.375C5.1 6.03685 5.23433 5.71255 5.47344 5.47344C5.71255 5.23433 6.03685 5.1 6.375 5.1C6.71315 5.1 7.03745 5.23433 7.27656 5.47344C7.51567 5.71255 7.65 6.03685 7.65 6.375C7.65 6.71315 7.51567 7.03745 7.27656 7.27656C7.03745 7.51567 6.71315 7.65 6.375 7.65ZM10.625 7.65C10.2868 7.65 9.96255 7.51567 9.72344 7.27656C9.48433 7.03745 9.35 6.71315 9.35 6.375C9.35 6.03685 9.48433 5.71255 9.72344 5.47344C9.96255 5.23433 10.2868 5.1 10.625 5.1C10.9632 5.1 11.2875 5.23433 11.5266 5.47344C11.7657 5.71255 11.9 6.03685 11.9 6.375C11.9 6.71315 11.7657 7.03745 11.5266 7.27656C11.2875 7.51567 10.9632 7.65 10.625 7.65Z" fill="#003E26"/>
</svg>
