<svg width="20" height="21" viewBox="0 0 20 21" fill="none" xmlns="http://www.w3.org/2000/svg">
<path d="M13 5.50488C14.1046 5.50488 15 6.40031 15 7.50488M19 7.50488C19 10.8186 16.3137 13.5049 13 13.5049C12.3938 13.5049 11.8087 13.415 11.2571 13.2478L9 15.5049H7V17.5049H5V19.5049H2C1.44772 19.5049 1 19.0572 1 18.5049V15.9191C1 15.6539 1.10536 15.3995 1.29289 15.212L7.25707 9.24781C7.08989 8.69623 7 8.11106 7 7.50488C7 4.19117 9.68629 1.50488 13 1.50488C16.3137 1.50488 19 4.19117 19 7.50488Z" stroke="#003E26" stroke-width="1.5" stroke-linecap="round" stroke-linejoin="round"/>
</svg>
