<svg width="24" height="22" viewBox="0 0 24 22" fill="none" xmlns="http://www.w3.org/2000/svg">
<path d="M8.15 1C6.2537 1 4.43507 1.76091 3.09419 3.11534C1.7533 4.46977 1 6.30677 1 8.22222C1 10.1377 1.7533 11.9747 3.09419 13.3291C4.43507 14.6835 6.2537 15.4444 8.15 15.4444C9.08895 15.4444 10.0187 15.2576 10.8862 14.8947C11.7537 14.5317 12.5419 13.9998 13.2058 13.3291C13.8698 12.6585 14.3964 11.8623 14.7557 10.986C15.1151 10.1098 15.3 9.17066 15.3 8.22222C15.3 6.30677 14.5467 4.46977 13.2058 3.11534C11.8649 1.76091 10.0463 1 8.15 1ZM8.15 2.11111C9.75456 2.11111 11.2934 2.75496 12.428 3.90101C13.5626 5.04707 14.2 6.60146 14.2 8.22222C14.2 9.84299 13.5626 11.3974 12.428 12.5434C11.2934 13.6895 9.75456 14.3333 8.15 14.3333C6.54544 14.3333 5.0066 13.6895 3.872 12.5434C2.73741 11.3974 2.1 9.84299 2.1 8.22222C2.1 6.60146 2.73741 5.04707 3.872 3.90101C5.0066 2.75496 6.54544 2.11111 8.15 2.11111ZM7.6 4.33333V5.44444C6.69524 5.44444 5.95 6.19722 5.95 7.11111C5.95 8.02501 6.69524 8.77778 7.6 8.77778H8.7C9.01027 8.77778 9.25 9.01993 9.25 9.33333C9.25 9.64674 9.01027 9.88889 8.7 9.88889H7.6H5.95V11H7.6V12.1111H8.7V11C9.60475 11 10.35 10.2472 10.35 9.33333C10.35 8.41944 9.60475 7.66667 8.7 7.66667H7.6C7.28973 7.66667 7.05 7.42452 7.05 7.11111C7.05 6.79771 7.28973 6.55556 7.6 6.55556H8.7H10.35V5.44444H8.7V4.33333H7.6ZM16.2367 6.57509C16.3097 6.93999 16.3504 7.3147 16.3742 7.69488C19.4696 7.96374 21.9 10.5814 21.9 13.7778C21.9 17.1529 19.1913 19.8889 15.85 19.8889C13.3813 19.8889 11.2606 18.3931 10.3199 16.2517C9.96247 16.3507 9.59685 16.4278 9.22207 16.4774C10.2812 19.1275 12.847 21 15.85 21C19.7988 21 23 17.7665 23 13.7778C23 9.92103 20.0045 6.77937 16.2367 6.57509ZM16.2346 9.88889C16.0753 10.6755 15.8003 11.4212 15.4375 12.1111H16.4H18.05V11H16.4V9.88889H16.2346ZM14.8811 13.0204C14.6682 13.3238 14.4329 13.6102 14.1828 13.8819C14.478 14.1592 14.8694 14.3333 15.3 14.3333H16.4C16.7103 14.3333 16.95 14.5755 16.95 14.8889C16.95 15.2023 16.7103 15.4444 16.4 15.4444H15.3H13.65V16.5556H15.3V17.6667H16.4V16.5556C17.3048 16.5556 18.05 15.8028 18.05 14.8889C18.05 13.975 17.3048 13.2222 16.4 13.2222H15.3C15.1265 13.2222 14.9809 13.1419 14.8811 13.0204Z" fill="#003E26" stroke="#003E26" stroke-width="0.3"/>
</svg>
