<svg width="19" height="19" viewBox="0 0 19 19" fill="none" xmlns="http://www.w3.org/2000/svg">
<path d="M9.50033 6.11129C8.56262 6.11129 7.66331 6.46863 7.00025 7.10471C6.33719 7.74079 5.96468 8.6035 5.96468 9.50305C5.96468 10.4026 6.33719 11.2653 7.00025 11.9014C7.66331 12.5375 8.56262 12.8948 9.50033 12.8948C10.438 12.8948 11.3373 12.5375 12.0004 11.9014C12.6635 11.2653 13.036 10.4026 13.036 9.50305C13.036 8.6035 12.6635 7.74079 12.0004 7.10471C11.3373 6.46863 10.438 6.11129 9.50033 6.11129ZM7.37894 9.50305C7.37894 8.96332 7.60244 8.44569 8.00028 8.06405C8.39812 7.6824 8.9377 7.46799 9.50033 7.46799C10.063 7.46799 10.6025 7.6824 11.0004 8.06405C11.3982 8.44569 11.6217 8.96332 11.6217 9.50305C11.6217 10.0428 11.3982 10.5604 11.0004 10.9421C10.6025 11.3237 10.063 11.5381 9.50033 11.5381C8.9377 11.5381 8.39812 11.3237 8.00028 10.9421C7.60244 10.5604 7.37894 10.0428 7.37894 9.50305ZM7.2658 18.7477C7.99768 18.9152 8.74794 19 9.50033 19C10.252 18.9989 11.001 18.9135 11.732 18.7456C11.9421 18.6981 12.1316 18.5894 12.2747 18.4345C12.4178 18.2795 12.5073 18.0858 12.5311 17.88L12.6966 16.4351C12.7125 16.2775 12.7673 16.1258 12.8565 15.9925C12.9457 15.8593 13.0667 15.7483 13.2094 15.6688C13.3522 15.5892 13.5126 15.5434 13.6775 15.5351C13.8423 15.5268 14.0069 15.5563 14.1575 15.6211L15.5399 16.2018C15.7378 16.2853 15.9579 16.3077 16.1697 16.2658C16.3814 16.2238 16.5743 16.1197 16.7215 15.9678C17.743 14.912 18.5055 13.6504 18.9532 12.2755C19.0174 12.0766 19.0155 11.8635 18.9477 11.6657C18.8799 11.4679 18.7496 11.2953 18.5749 11.1718L17.3523 10.3069C17.2187 10.2135 17.1101 10.0912 17.0353 9.94987C16.9605 9.80854 16.9216 9.65223 16.9218 9.49372C16.922 9.3352 16.9613 9.17899 17.0365 9.03783C17.1117 8.89668 17.2206 8.7746 17.3544 8.68157L18.5707 7.82006C18.7464 7.69686 18.8775 7.52398 18.9456 7.32568C19.0137 7.12738 19.0154 6.91361 18.9504 6.71434C18.5035 5.33891 17.7406 4.07717 16.718 3.02206C16.5701 2.87041 16.3769 2.76647 16.1649 2.72456C15.9529 2.68264 15.7326 2.70482 15.5343 2.78803L14.1582 3.3687C14.0074 3.43177 13.8432 3.45991 13.6789 3.45085C13.5147 3.44178 13.3549 3.39577 13.2126 3.31652C13.0703 3.23728 12.9495 3.12702 12.8598 2.99468C12.7702 2.86233 12.7142 2.7116 12.6966 2.55468L12.5297 1.11657C12.5063 0.908353 12.4155 0.712397 12.27 0.556274C12.1245 0.400151 11.9317 0.291721 11.7186 0.246242C10.9925 0.0905929 10.2514 0.0080651 9.5074 0C8.759 0.00850112 8.01352 0.0910184 7.28277 0.246242C7.06966 0.290944 6.87663 0.398872 6.73105 0.554723C6.58546 0.710573 6.49473 0.906435 6.47169 1.11453L6.3041 2.554C6.2858 2.71116 6.22938 2.86202 6.13937 2.99451C6.04937 3.127 5.92827 3.23742 5.78578 3.31694C5.64329 3.39646 5.48337 3.44287 5.31883 3.45245C5.15429 3.46203 4.98969 3.43451 4.83823 3.37209L3.46215 2.79075C3.26361 2.70985 3.04399 2.68923 2.83286 2.73168C2.62173 2.77413 2.42923 2.8776 2.28125 3.02817C1.25848 4.0843 0.494991 5.34657 0.0467202 6.72248C-0.0170811 6.92124 -0.0148749 7.13411 0.0530335 7.33161C0.120942 7.52911 0.251191 7.70147 0.425741 7.82481L1.64554 8.68767C1.77842 8.78147 1.88644 8.90392 1.96089 9.04515C2.03534 9.18638 2.07413 9.34242 2.07413 9.50068C2.07413 9.65894 2.03534 9.81498 1.96089 9.95621C1.88644 10.0974 1.77842 10.2199 1.64554 10.3137L0.425741 11.1786C0.250532 11.3022 0.119904 11.4751 0.0520852 11.6734C-0.015734 11.8716 -0.0173623 12.0852 0.0474273 12.2843C0.495491 13.6611 1.25898 14.9243 2.28195 15.9813C2.37921 16.0816 2.49712 16.1615 2.62821 16.2158C2.75931 16.2701 2.90074 16.2976 3.04353 16.2968C3.18708 16.2968 3.32921 16.2683 3.46145 16.2133L4.84388 15.6306C4.99467 15.5681 5.15863 15.5404 5.3226 15.5498C5.48657 15.5591 5.64596 15.6052 5.78798 15.6844C5.93 15.7635 6.05068 15.8736 6.14032 16.0056C6.22995 16.1377 6.28605 16.288 6.3041 16.4446L6.47028 17.8868C6.49441 18.0915 6.58375 18.284 6.72611 18.4382C6.86847 18.5924 7.05693 18.7007 7.2658 18.7483V18.7477ZM11.1557 17.4818C10.0647 17.6965 8.93953 17.6965 7.84847 17.4818L7.71058 16.3015C7.64318 15.7241 7.35616 15.1908 6.90446 14.8037C6.55081 14.505 6.11632 14.3083 5.65113 14.2362C5.18594 14.1642 4.709 14.2199 4.27535 14.3967L3.1397 14.8715C2.40711 14.0668 1.84335 13.134 1.47936 12.1242L2.48632 11.4106C2.79741 11.1907 3.05029 10.9037 3.22457 10.5729C3.39884 10.242 3.48964 9.87647 3.48964 9.50577C3.48964 9.13506 3.39884 8.76954 3.22457 8.43868C3.05029 8.10781 2.79741 7.82086 2.48632 7.60095L1.48148 6.88936C1.8459 5.88061 2.40963 4.94873 3.14182 4.14474L4.27323 4.61959C4.58507 4.75169 4.92232 4.81963 5.26321 4.81902C5.87027 4.8172 6.45546 4.6014 6.90749 4.21267C7.35951 3.82394 7.64684 3.2894 7.71483 2.7107L7.85201 1.52562C8.39933 1.42386 8.95513 1.3696 9.51164 1.36281C10.0646 1.3696 10.6162 1.42386 11.1593 1.52562L11.2908 2.70595C11.3563 3.28502 11.6426 3.82042 12.0948 4.20918C12.4487 4.50974 12.8843 4.70758 13.3509 4.77965C13.8176 4.85171 14.2959 4.79502 14.7303 4.61619L15.8617 4.14135C16.5949 4.94512 17.1592 5.87733 17.5234 6.88664L16.5172 7.5962C16.2045 7.81535 15.9501 8.10219 15.7748 8.43341C15.5994 8.76464 15.508 9.13088 15.508 9.50237C15.508 9.87386 15.5994 10.2401 15.7748 10.5713C15.9501 10.9026 16.2045 11.1894 16.5172 11.4085L17.5227 12.1208C17.1581 13.1282 16.5952 14.0591 15.8645 14.8627L14.7331 14.3879C14.379 14.2367 13.9927 14.1681 13.6057 14.1876C13.2187 14.2071 12.8421 14.3142 12.5065 14.5001C12.1709 14.686 11.8859 14.9455 11.6749 15.2573C11.4638 15.5691 11.3327 15.9243 11.2922 16.294L11.1557 17.4812V17.4818Z" fill="#003E26"/>
</svg>
