<svg width="24" height="28" viewBox="0 0 24 28" fill="none" xmlns="http://www.w3.org/2000/svg">
<path d="M24 22.0005H20V18.0005H18V22.0005H14V24.0005H18V28.0005H20V24.0005H24V22.0005Z" fill="#FF6E00"/>
<path d="M10 26.0003H2V2.00034H10V8.00034C10.0016 8.53029 10.2128 9.03808 10.5875 9.41281C10.9623 9.78754 11.4701 9.99876 12 10.0003H18V14.0003H20V8.00034C20.0035 7.86892 19.9785 7.73829 19.9268 7.61745C19.875 7.49661 19.7976 7.38842 19.7 7.30034L12.7 0.30034C12.612 0.202685 12.5038 0.12529 12.3829 0.0734971C12.2621 0.0217038 12.1314 -0.00325583 12 0.00034004H2C1.47005 0.00192277 0.962265 0.213145 0.587535 0.587875C0.212805 0.962605 0.00158273 1.47039 0 2.00034V26.0003C0.00158273 26.5303 0.212805 27.0381 0.587535 27.4128C0.962265 27.7875 1.47005 27.9988 2 28.0003H10V26.0003ZM12 2.40034L17.6 8.00034H12V2.40034Z" fill="#FF6E00"/>
</svg>
